<mxfile host="65bd71144e">
    <diagram id="HIP3nbAZw_EuaXWnEj3U" name="Page-1">
        <mxGraphModel dx="1086" dy="743" grid="1" gridSize="10" guides="1" tooltips="1" connect="1" arrows="1" fold="1" page="1" pageScale="1" pageWidth="850" pageHeight="1100" math="0" shadow="0">
            <root>
                <mxCell id="0"/>
                <mxCell id="1" parent="0"/>
                <mxCell id="9" value="&lt;meta charset=&quot;utf-8&quot;&gt;&lt;b id=&quot;docs-internal-guid-a33ec28d-7fff-8be3-a314-a108f352fbaf&quot; style=&quot;font-weight:normal;&quot;&gt;&lt;span style=&quot;font-size: 11pt; font-family: &amp;quot;Helvetica Neue&amp;quot;, sans-serif; color: rgb(0, 0, 0); background-color: transparent; font-weight: 400; font-style: normal; font-variant: normal; text-decoration: none; vertical-align: baseline;&quot;&gt;&lt;span style=&quot;border:none;display:inline-block;overflow:hidden;width:662px;height:522px;&quot;&gt;&lt;img style=&quot;margin-left:0px;margin-top:0px;&quot; height=&quot;522&quot; width=&quot;662&quot; src=&quot;data:image/png;base64,iVBORw0KGgoAAAANSUhEUgAAApYAAAIKCAYAAACZVg8yAAAAAXNSR0IArs4c6QAAIABJREFUeF7snQeUFNXWhfcM5oABc85iThif+p5ZwfzMmMWsGEBFUBGfKCpGzOEJihGfCioGMGJCUYwIYsKcBcSEMvOv71rF3wwzHWY6VHfvs9YsHbrq3nO/qunade6959SovG1eSYs3+Gmd4CFNlvRVg5+fE+yvXTMBEzABEzABEzCBrAnUZH1kMg5sJ6m9pA6S2kpKsojMlhhic6ykRyQNlTQq2xN9nAmYgAmYgAmYgAkkiUA5CEuEZPyzfCq8ueeeW4svvvgMPwsssECS+M7gy08//aSvvvpqhp9ffvmlob8fRwITkcmPzQRMwARMwARMwATKgkCSheURkrpJWikmueyyy6p9+/bhZ4stttB8881XFpDTOTlp0iSNGDFCQ4cODT8TJkxIPfwDSX0k3VL2A/UATMAETMAETMAEKp5AEoXlXpGg3AD67dq1my4mN95444q/ICNHjpwuMkeNmj4r/lokMO+reAAeoAmYgAmYgAmYQNkSSJKw3D4SlFtBc9VVV1W3bt106KGHli3cljrev39/9enTR+PGjYubejoSmE+0tG2fbwImYAImYAImYAL5JpAUYXm6pIsYHGsmzzjjDJ100kn5HmvZtnfVVVcFgcn6zMjOkHRx2Q7IjpuACZiACZiACVQkgSQIy5slsZ5SPXv2VI8ePTTrrLNWJOyWDOrPP/9U79691atXr7gZ1l12akmbPtcETMAETMAETMAE8kmglMKSHd4DJG2BkGTa94ADDsjn2CqyrTvvvDMsD0BoShoh6RBJ7CS3mYAJmIAJmIAJmEBJCZRKWLKO8i5Ji66++uoaMGBA2KRjy44Am3oOOeQQjRkzhhO+kbS/JNZf2kzABEzABEzABEygZARKISxXiCJtS+y+++5BVLZuXQl5zot7DSdPnhzE5YMPPkjHXxL5lfRRcb1wbyZgAiZgAiZgAibw/wSKLSxbRaJy01133VWDBw/2tWghgd12201DhgyhlZcicTmthU36dBMwARMwARMwARNoFoFiC0umv/dbZ511QlLweeel1LetJQR+/vnnkCz+zTffpJm7o2nxljTpc03ABEzABEzABEygWQSKKSypIHPG/PPPH0Tlmmuu2SyHfdLMBN59911tvvnmmjhxIh+StomKRTYTMAETMAETMAETKCqBYgnL3SU9wMgeeeSRUEnHll8ClIPs0KFD3OgeksLiS5sJmIAJmIAJmIAJFItAsYQltQk36Nu3r7p06VKssVVdP5deeqm6du3KuCkB6W32VXcHeMAmYAImYAImUFoCxRCWx0i6rm3btnrvvfdKO9oq6H211VbT2LFjGemxkq6vgiF7iCZgAiZgAiZgAgkhUGhhOWurVq0+nTZt2mIDBw5Ux44dEzLsynXjjjvu0IEHHqhWrVp9PW3atGUkhUzqNhMwARMwARMwARMoNIFCC0vqD56z1VZb6amnnir0WNx+RGDrrbfW00+HfOnnUSnTYEzABEzABEzABEygGAQKKSznl/SDpNonn3xSiB1bcQjAe9ttt6WzOkltJIXt4jYTMAETMAETMAETKCSBQgrLgyTdtt122+mJJ54o5BjcdiMEtt9+ew0bNoxPDpZ0uyGZgAmYgAmYgAmYQKEJFFJY3itp76uuukonnnhiocfh9hsQ6Nevnzp37sy/DpK0jwGZgAmYgAmYgAmYQKEJFEpYzlJbW/tLXV3dbB9//LGWW265Qo/D7Tcg8Mknn2j55ZdXbW3t1Lq6urkl/WVIJmACJmACJmACJlBIAoUSliTovn/TTTfViy++WEj/3XYaAptttpleeokS4tozTlBvYCZgAiZgAiZgAiZQKAKFEpb/lXTYBRdcoDPPPLNQvrvdDAQuvPBCde/enaNulXS4gZmACZiACZiACZhAIQkUSlh+Kmnpt99+2zXBC3n1MrT9zjvvaK211uKozySR09JmAiZgAiZgAiZgAgUjUChhyXq+Vn/88Ydmm222gjnfnIZfffVVnXHGGfruu+80depUzTXXXOrVq5d23XXX0Nwmm2yil19+Oeemm3tezh3lcALjm3322TljmqRZcjjVh5qACZiACZiACZhAzgQKISwXl/TlIossom+++SZnhwp9wpJLLqlBgwaJ9YfYc889p/bt24tNRgsvvLAWWmghff/99zm70dzzcu4oxxMWXXRRffvtt5y1hKSvcjzdh5uACZiACZiACZhA1gQKISw3kDRq3XXX1ejRo7N2pBgH/vXXX5p77rn12GOPiWpAsRFZJbJ30EEHiZKIiM577rlHjz76qEjb06pVK80///y6/fbbhTB9/fXXdfjhh2vttdfWRx99FHZfp57HMUmx9dZbT2+88QbutJP0WlL8sh8mYAImYAImYAKVR6AQwnIXSUOIAj7yyCOJI3bJJZfovPPO00477aQddtgh/HeJJQjmKUQql1pqKf3+++/66aeftNJKK2ns2LEhknnKKaeEqfNrrrlGrB1l6hvRicBMPS9pA+7QoYOGDh2KW8z1P5Q0/+yPCZiACZiACZhA5RAohLA8WtL1nTp10k033ZRIUp9++mmoBsQ0+OOPP6699tpLV199tX744YfpwrKh43fffbduvfXWcDybYjbccENNmTIlRDOTLCyPPPJI3XzzzQznGEk3JPKC2CkTMAETMAETMIGKIFAIYdlT0rnnnHNO2BSTdPvll1/Url079e3bVxtvvPF0YTlt2jR17dpVbPZhmpzNPqwbHT58eBCWRDu/+OKLmSKdSRtvz549Q4SWayIp+RckaQDtjwmYgAmYgAmYQNYECiEsExuxZHp7woQJYv1nqlHPfO+999aee+45XViyZvKKK67QCy+8EHa2DxgwIKyxjIXljjvuqM8//zzxwtIRy6z/FnygCZiACZiACZhACwkUQlgmdo0lm1jYtPPQQw9p8803D+hYB7rvvvtq1KhRWnzxxdWmTRv9+uuvYRqfae8hQ4aE9Zb77LOPiG5SSYiIZaqwnDRp0vTzkpZeyWssW/gX4tNNwARMwARMwASyJlAIYZnYXeFQQVT27t1bX3/9terr68Mub6aLmdrGtt9+e40fP1633HJLqFrz22+/adlll52e6/L444/XzjvvPIOwTD3vf//7n9Zff/2sL0ChD/Su8EITdvsmYAImYAImYAIxgUIIy0Tnsay2S+88ltV2xT1eEzABEzABEygdgUIIS0aT2Mo7pUNd/J5deaf4zN2jCZiACZiACVQzgUIJS9cKT8Bd5VrhCbgIdsEETMAETMAEqohAoYTlfyUddsEFF+jMM8+sIpzJGuqFF14Y1olKulXS4cnyzt6YgAmYgAmYgAlUGoFCCcs9JN2/6aabhl3UttIQoDTlSy+9ROd7SnqgNF64VxMwARMwARMwgWohUChhOUttbe0vdXV1s3388cdabrnlqoVnYsb5ySefhBrmtbW1U+vq6uaO1r0mxj87YgImYAImYAImUHkECiUsIXWvpL2vuuoqnXjiiZVHLuEjoo55586d8XKQpH0S7q7dMwETMAETMAETqAAChRSWB0m6jao21OW2FZcA+TiHDRtGpwdLur24vbs3EzABEzABEzCBaiRQSGE5v6QfJNVSBnGbbbapRr4lGfNTTz0V866T1EbSxJI44k5NwARMwARMwASqikAhhSUge0k6hzKKiB1bcQhsvfXWevrpp+nsPEk9i9OrezEBEzABEzABE6h2AoUWlrO2atXq02nTpi02cOBAdezYsdp5F3z8d9xxhw488EC1atXq62nTpi0j6c+Cd+oOTMAETMAETMAETEBSoYUlkI+RdF3btm313nvvGXqBCay22moaO3YsvRwr6foCd+fmTcAETMAETMAETGA6gWIISzobJWmDvn37qkuXLsZfIAKXXnqpunbtSuuvSWpXoG7crAmYgAmYgAmYgAk0SqBYwnL3OEH3I488ovbt2/ty5JnA0KFD1aFDh7hVEtQ/mOcu3JwJmIAJmIAJmIAJpCVQLGGJE30knTH//PPr+eef1xprrOFLkycC1ATfYostNHFi2Px9kaRueWrazZiACZiACZiACZhA1gSKKSxx6i5J+62zzjoaMWKE5p133qwd9YGNE/j555+DqHzzzTc54G5J+5uVCZiACZiACZiACZSCQLGFZStJIyRtuuuuu2rw4MGlGHNF9bnbbrtpyJAhjImi4FtImlZRA/RgTMAETMAETMAEyoZAsYUlYFaIxOUSu+++uwYMGKDWrVuXDbCkODp58mQdcsghevDBsJTyy0hUfpQU/+yHCZiACZiACZhA9REohbCE8lbRtPiiq6++ehCX7dp5E3O2t9+oUaOCqBwzZgynfBNNf4eM6DYTMAETMAETMAETKBWBUglLxru8pAFE2maddVb1799fBxxwQKk4lE2/d955pw499FD9+WfIe86ygkMkfVw2A7CjJmACJmACJmACFUuglMIyhnqzpCP4pWfPnurRo4cQmrYZCSAke/furV69qJIZ7BZJnczJBEzABEzABEzABJJCIAnCEhanR2lytPjii6tbt27q3LlzUhiV3I8rr7xSF110kb766qvYlzMkXVxyx+yACZiACZiACZiACaQQSIqwxKXto/yLrL/UqquuGgQm077VaiwP6NOnj8aNGxcjYB0l+UCfqFYmHrcJmIAJmIAJmEByCSRJWMaU9o4E5vr8A5t6qNTDz8Ybb5xcknnybOTIkaKKDj9s0omMEo0kPh+Up27cjAmYgAmYgAmYgAnknUAShWU8SNZdUkFmpfgfll122ekik6Tg8803X96BFLvBSZMmhWTxsZicMGFCqgsfRBFK1lPaTMAETMAETMAETCDRBJIsLGNwFBaPf9hJPt3mnnvusCYz9WeBBRZILPCffvoprJNM/fnll18a+ssO76EpP4kdjx0zARMwARMwARMwgVQC5SAsU/0l2SUis4OktpIqIbP6ZEljJT0Sicnp89++VU3ABEzABEzABEygnAiUm7BsyJZi44s3+Mmn2DxXEj/5MkQkW7tTf37OV+NuxwRMwARMwARMwARKSaDchWWh2dVLMqNCU3b7JmACJmACJmACFUHAoin9ZbSwrIjb3IMwARMwARMwARMoBgELSwvLYtxn7sMETMAETMAETKAKCFhYWlhWwW3uIZqACZiACZiACRSDgIWlhWUx7jP3YQImYAImYAImUAUELCwtLKvgNvcQTcAETMAETMAEikHAwtLCshj3mfswARMwARMwAROoAgIWlhaWVXCbe4gmYAImYAImYALFIGBhaWFZjPvMfZiACZiACZiACVQBAQtLC8squM09RBMwARMwARMwgWIQsLC0sCzGfeY+TMAETMAETMAEqoCAhaWFZRXc5h6iCZiACZiACZhAMQhYWFpYFuM+cx8mYAImYAImYAJVQMDC0sKyCm5zD9EETMAETMAETKAYBCwsLSyLcZ+5DxMwARMwARMwgSogYGFpYVkFt7mHaAImYAImYAImUAwCFpYWlsW4z9yHCZiACZiACZhAFRCwsLSwrILb3EM0ARMwARMwARMoBgELSwvLYtxn7sMETMAETMAETKAKCFhYWlhWwW3uIZqACZiACZiACRSDgIXljJS7SDpfUjdJV0qqlwSjkyT1kXSWpEuLcWHchwmYgAmYgAmYgAmUGwELyxmv2LySfpD0l6RfJbWR9KOkOSXNEv3+c7ldZPtrAiZgAiZgAiZgAsUgYGE5M+ULJZ0qabaUj6ZKukzSmcW4KO7DBEzABEzABEzABMqRgIXlzFeNqOV3kmZP+egPSQtLcrSyHO9y+2wCJmACJmACJlAUAhaWjWNOjVo6WlmUW9GdmIAJmIAJmIAJlDsBC8vGr2Bq1NLRynK/y+2/CZiACZiACZhAUQhYWDaNmaglu8TZBe61lUW5Hd2JCZiACZiACZhAORMoB2G5sqS1JK1dZNBs3tld0oOSmA6vBntL0geSxkv6rRoG7DGagAmYgAmYgAnkj0BSheWKki5p1arVFtOmTVsof8N1S9kQqKmpmVBfX0+U9q5sjvcxJmACJmACJmACJgCBJArLPSTdj3MLLLCAVlhhhfCzxhpr+IoVmMBnn32mCRMmaPjw4XFPh0i6rcDdunkTMAETMAETMIEKIZA0YfmIpPawPffcc9WzZ88KwVxew+jfv78OO+wwnH5A0p7l5b29NQETMAETMAETKBWBJAnLQyXdusoqq+i6667T1ltvXSomVd/vxIkTQ7Q4siTdI1V/bQzABEzABEzABJJMICmiYW5JH5OE/NZbb9Whh6IxbaUiMHLkSG2yySZ0P0LSlqXyw/2agAmYgAmYgAmUF4GkCMtrJB237bbbatiwYeVFsAK9vfTSS9W1a1dGdoGkHhU4RA/JBEzABEzABEygAASSICyXkPSepNZDhgzRLrvsUoBhuslcCCDwn3zySU7ZUdLjuZzrY03ABEzABEzABKqXQBKE5XGSrllnnXX0xhtvVO+VSMjIX3nlFW288caqqal5u76+vti5QxNCwW6YgAmYgAmYgAk0h0AShOUTkrZjBzg7wW2lJdC9e3ddeCFFh3SeJG/LL+3lcO8mYAImYAImUFYESi0s15f0GsSIVhK1tJWWwOqrr6733mNlgrg2o0vrjXs3ARMwARMwARMoJwKlFpZExc7eaaedNHTo0HLiVpG+Pvjgg9pjD/LTiyjyDhU5SA/KBEzABEzABEygYARKLSypTb3WjTfeqCOPPLJgg3TD2REgzdOAAQM4mHWv12V3lo8yARMwARMwARMwgb8JlFJYdpD08EILLaQxY8Zo4YUX9jUpIYEvv/xSq622mqZMmfJzXV3dqpK+KqE77toETMAETMAETKAMCZRSWN4o6chOnTrppptuKkN0leXyNddcoxNOOIFBURucGuE2EzABEzABEzABE8iJQKmEZZsod+XCDz/8sDp0IHhpKyWB7bbbTsOHD8cFaoNTI9xmAiZgAiZgAiZgAjkRKJWwPELSzWuvvbbefPPNnBz2wfkn8Oqrr2qjjTZSbW3t+GgavD7/vbhFEzABEzABEzCBSidQKmH5kKSdnbsyGbdXjx49dMEFVG/URZK6JcMre2ECJmACJmACJlBuBEohLNeQ9A6gRo8erXXXXbfcmFWcvym5KzeT9FLFDdADMgETMAETMAETKAqBUgjLHpLOd+7KolzfjJ0MHjxYu+++O8c9K+lfGU/wASZgAiZgAiZgAibQBIFSCMtXJbW74YYbdNRRR/nClJhASu7KUyRdUWJ33L0JmIAJmIAJmEAZEyi2sNxG0vA2bdqEsoHOXVnaO+err74KuSsnT548tb6+ntyVn5TWI/duAiZgAiZgAiZQzgSKLSz7STrhiCOO0M0331zO3CrC92uvvVbHH388Y7lH0n4VMSgPwgRMwARMwARMoGQEiiks54lyVy7l3JUlu94zdLz99ttr2LBh/Nv+ku5Ohlf2wgRMwARMwARMoFwJFFNYHijp9rXWWktvvUWJcFspCYwaNUobbrghuSs/jXJX/l5Kf9y3CZiACZiACZhA+RMoprAcJGmvc845R7169Sp/cmU+grPOOku9e/dmFGzYYeOOzQRMwARMwARMwARaRKBYwnIlSWMltXr99de13nrrtchpn9xyAmussYbGjBlDQ1tJeqblLboFEzABEzABEzCBaidQLGHZVdIlO+64ox599NFqZ17y8Q8ZMkS77bYbfrwsadOSO2QHTMAETMAETMAEKoJAsYTl85L+cf311+voo4+uCHDlPIjDDjtM/fv3ZwiUb6SMo80ETMAETMAETMAEWkygGMJyc0kjFlxwwZC7cpFFFmmx00ltYJNNNtHLLxMETK6Ru5ISjhMnTsTJtpLGJddbe2YCJmACJmACJlBOBIohLPtK6nL44YfrlltuKSc2Ofu60EIL6fvvv8/5vGKecN111+m4446jywcl7VHMvt2XCZiACZiACZhAZRMotLCcNcpdueJDDz2knXfeuVk0iQJSenDsWPb/KEQF49+nTp0qEq6/++67+vPPP0M07r///a/mnntuPfLIIzr33HNJqaMFFlhAN910k5ZeemmxgQihu/baa+ujjz7S888zU///1tR5b775Zuh3r7320qBBg0LUj9KUO+ywgw466CDdcccd2myzzXTPPffojTfeyKrvp556qkn/mwUrw0n4+sQTT3DUoZIGFKIPt2kCJmACJmACJlCdBAotLPeWdG9Lc1emE5b33XdfEJJDhw4NV7Bv377617/+paWWWkprrrmmXnnlFa2wwgqiygyCkZ+3335bTFv369cvCMxU+/rrr5s875133gm5HwcOHKh///vfYZ0iYvWFF14IkUr6/P3335WujYZ9N+V/u3bt8n5Hvvbaa6Ld2trab6LclZPy3okbNAETMAETMAETqFoChRaWAyV1PPvss3Xeeec1G3I6YfnSSy8FkccU73bbbae55por9HPbbbeFqCKRUmzKlCmaf/759dtvv2ncuHFBIPJvrVq1msGvTOcRkZw8eXI4h0Tvu+yyiyZMmDCDsMzURmrfTfnfbFhpTkzJXXmdpDAfbjMBEzABEzABEzCBfBEopLBcuqamZmx9ff1cRMrWX3/9ZvucTljSKFG/a665RvTDNPXVV18dIpQXXHCBlllmmRn6ffzxx/Xdd9+F6esvvvhiJp+IeKY7j5RJn3/+eTiPCGb8e2rEMlMbDftuzP9YIDcbWiMnEsFlyYCkHSU9ns+23ZYJmIAJmIAJmIAJFFJYnijpKkTUY4891iLSr776qjp27Kj3338/tMMawc6dO09fcxk3/uOPP2r//fcXNbAXXXRR3X333aIueUNLFYQNP2OaO9vzmhKWubSR2n+q/126dGkRs4Ynp+SuHC2p+So/r165MRMwARMwARMwgUoiUEhh+aSkrfORu/LLL7/UyiuvHKac27RpI/IwEsVkMw/rHP/66y916tQpXJdjjjlGK620UthMQ3UZjuP3Z555Jqy/RGimE5bffPNN1ueltjNp0qTg26+//qqffvop6zaa8r9rV3LK589YS3rrrbfSYE9JzV+XkD+X3JIJmIAJmIAJmECFESiUsNxQ0ivsxCZ3JdHDlhpCi93WbJA54IADdNVVV2n8+PFhOhuhyfR2TU2NVllllZDWKN4VTm1ybNZZZw3T40zJpxOWHMsGn2zOa9gOkVJ8+t///ifyRWbTRjr/W8osPp/NRKuttlqcu3Idlofmq223YwImYAImYAImYAIxgUIJy96SuldD7spyuJWIGh977LG4Sj3N9uXgs300gRwJLCXp78XPNhMwARMwgZIRKJSwZIfI6qzrY9e0rbQEUnJXUk/zxtJ6495NIO8ESJB7k6QjJc28qDrv3blBEzABEzCBpggUQljuKmkwO5DJ2WgrLQGSwW+wwQYsE5hYX1+/qqRvS+uRezeBvBLoIen8lBbPksSMic0ETMAETKAEBAohLKnbeDg5E//zn/+UYEjuMpUAOUTPPz88d/8r6QjTMYEKITBfFKWkCENYz5ySK3dQFL10AYAKudgehgmYQPkQyLewXKSmpmZcfX39/C3NXVk+CJPtKVWP2GQkaTdJQ5Ltrb0zgawIbBmJylUWXHDBUP1qzz331P33368jjzxSpO2SRG4ypsafy6pFH2QCJmACJpAXAvkWlkdJuoHd0SQit5WWAFWHdt2VlQkaI2mN0nrj3k0gLwRCflxa2mqrrYKoXHHFFac3/OGHHwZx+fTTT8f/1llSv7z07EZMwARMwAQyEsi3sKRg906UVySfpK20BI444ohQR13SBZJYi2YzgXIlwHcVG3TCco6TTz5Zl19+eZNjOeWUU3TFFVfEn7M8h+hlfbkO3n6bgAmYQLkQyKewXFvSm9TjJnflYostVi4MKtJPEr2Tu5Jk7ZI2kvRqRQ7Ug6oGAutGorLdLLPMEqKUhx56aMZxU3yA6CUFFCSNisTlGxlP9AEmYAImYALNJpBPYUkm8l4kK4+iZM12qhgn3nzzzerXr59atWolxPDtt9+uJZdcMnTNpqP4d0pEUjv8k08+CZ+RPP3cc89VbW2tSADPQ27ppZcuhss59XHDDTfEUeOnJG2T08k+2ASSQ+CQSFTOSnYD/t7WW2+9rL0bPXp0EJes+Zb0ZyQuB2TdgA80ARMwARPIiUA+heXrktYbPHhwvK4vJ0eKeTBRPMo8UhJy4YUXFtNmU6dO1TXXXBM2urB2i88QjnvttZfeeustffDBB6KCDWmUXnnlFa2wwgqhkg9Ck5+k2Y477hivc/Uas6RdHPuTLYHLJJ3CwRRbQFTyQper1dXVBXGZ8sLLHPqpubbj403ABEzABDITyJew3EHSY9TmjnYgZ+45QUfcfffdoY42G46oUjNs2LBQlhGjjGSPHj2CsLzttts0aNAgsSkGmzJlSoh2/vbbb6FkZFIsJXflr/X19W0lfZYU3+yHCWRBYIUoSrk1x1555ZXq3Jn3o5YZZWBPOumkuBEi+ay7/KhlrfpsEzABEzCBVAL5EpbXSjoWARblTEw05WnTpona46+++qpmn332UGd8kUUW0fDhw8O090cffSSmyrEXX3xRBx98cBCWffv2DZ8vs8wyM4wPQZqPeuj5gkZOvyiH6B2SDsxXu27HBIpAYI9IVLZZeeWVQ5Tyn//8Z966ffbZZ0P0cvz48bT5QyQuH8hbB27IBEzABKqcQD6E5Xy1tbXj6urqFh01alSo8pJ0u+OOO8KO0RdeeEGzzTabBgwYENZUIiyZDufhc++994Zh8N/u3bsHYTlw4EAR3Xz44WRXjVt77bXjqkf7SCJZtM0EyoHAuZJ64ihLUBCVzAjk2yZOnBjE5X333Rc33UsSfdtMwARMwARaSCAfwpLF9f3LKXcl4pEoI7XMWW+5zz776JdffgnRSaKY5H4cN26c5p13Xu23335h4T/Ckp3WTPf8CmzSAAAgAElEQVS//PLLYY3mM888E6KYSRKa+BLVZ/9Q0mrRhoUW3iY+3QQKSmChKEq5O70QbadyV6GN2RUqU0X2YBS9/L7Q/bp9EzABE6hkAvkQlkwj7c5GlmOPPbYsWH3//ffaeeedw9rIZZddVr169Qpi8vjjj1e3bt3CNPmDDz4YEi/z7+ywZgMPxkYdppox1lUy7vXXXz8x407JXXmppK6JccyOmEDjBMhYQH7K5VlOQpQyejEqCi/WSxO95KVR0seRuHyyKJ27ExMwAROoQAItFZarShrLdNWYMWO0+OKLlz2iX3/9Vc8//3zYGY5wvPTSS8OGJDb3JN2+/fbbkLsyKmm3haTnk+6z/atqAuzM5gVIzHggKhuuXy4GnU8//TSIyyeeeCLuroskdqTbTMAETMAEciTQUmF5hqQ+JCsuB+GVDRs29lA16LnnngtT4aQjuuWWW7TEEktkc3pJj0nJXfmCpM1L6ow7N4GmCcwWRSkP5pDTTjtNF198ccl5nX766brkkktiP26LopdTS+6YHTABEzCBMiLQUmH5kqRNyiF3ZRldk2a7utNOO+mxxx4Lz2pJfZvdkE80gcIR2DASlevMOeecIUrZsWPHwvWWY8ts7CN6yTIZKolF4tJVq3Lk6MNNwASql0BLhOW/JD29+uqr6913361eggkZORVGorWe0ySRu/KDhLhmN0wgJtApEpXaZJNNgqik4EDSjKUviEs26UVGvsu/84/ZTMAETMAE0hJoibCkesXJ5ZK7stLvg549e+q8885jmORQ2bvSx+vxlR2BfpJOwOujjz46FCJIurEkhuUlkV0t6cSk+2z/TMAETKDUBJorLOeIclcuQ3qedu3alXocVd9/Su7KgyQNrHogBpAUAmzwI9oX1vyWU/YI/L3uuut03HHHxSzZDEfUdVxS4NoPEzABE0gageYKy/0k3bXddtul7qRM2tiqxh9SIJE+SdLnUe7KKVUzeA80yQRI0I+onJclM0x9b7bZZkn2t1HfyG/L1DiZLyT9HInLvyso2EzABEzABGYg0FxhebekfUk0nvI2b7QlItCpU6ewc12Sp+tKdA3c7UwELpB0Jv+6//77B1E599xzly0mCiggLu+66654DBdK6l62A7LjJmACJlAgAs0RlsvV1NSMa9269WzvvfdeReSuLBDbojRLnXNyV/7wA2WPta0kJ3cuCnl30gQBktkSpWzP53369NEZZ5CVrDLsoosuCkUUIhsaRS+/qozReRQmYAIm0HICzRGWJ0u6/JBDDlH//v1b7oFbaBGBG2+8MWyGkDRKEqlcbCZQKgI7RqJyyaWWWipEKXfckX+qLCOlF9HLzz9n5Ym+iMRlyPNlMwETMIFqJ9AcYfmMpH9S8nC33Xardn4lH3/79u316KOP4gfFlXuX3CE7UK0ECOMxPawOHToEUVkJlbiauphfffVVEJesb46Maf8+1XrxPW4TMAETiAnkKiw3lfQiU6/RQnaTLCGBN954Q+utt17sAQkBnVC0hNejSrtm4SRT32zoU/fu3dW7d/W835Bu7YILWE4ajLXn7Br/pUrvBQ/bBEzABJSrsOSN/Ixqe3gk9T4599xz1atXL9x7WNIuSfXTflUsgX9ECc9Xa926dYhS7rMPG8Gry+69994QvZw8eTIDfy+q1kNZVZsJmIAJVB2BXIRlTZS7cuVXXnlFG27o5XylvlvWWWcdvfXWW7hBlCRsC7eZQJEIkNzxGvraYostgqhcdVVSVlanjRs3LojLESNGxACOJ21nddLwqE3ABKqZQC7Ccg9J92+77bYaNmxYNTNLxNhTcld+F+WuDNvCbSZQBAKUozmKfk444QT160dRHRsETjzxRF19NVm/gt1IoSGTMQETMIFqIpCLsBwg6WC+NI8/npdxWykJEB25+eZQvvim+CFfSn/cd1UQWCu63zYON95NN4kcqrYZCfB3yd9nZCOjqfG3zckETMAEqoFAtsJycabB55lnnnnJXbnEEktUA5vEjpHclVQy+f777/GRkjvTt6Ym1mk7Vu4EDoxE5RwswUBUejlM05eUUreIyzfffJODfo/EpUutlvtfgf03ARPISCBbYXks64WcuzIjz6IcwEP9qKPCTCRRkLWL0qk7qWYCl0jqCoCDDz44iMrZZputmnlkNfapU6cGcXnbbbfFx/eVdFpWJ/sgEzABEyhTAtkKy8clbf/AAw9o9913L9OhVo7bKbkr/yPpnMoZmUeSMALLRlHK7fDr0ksv1amnnpowF5PvzmWXXaYuXbrEjrJAnXnyCcn33B6agAmYQO4EshGWJEp83bkrc4dbiDOYWlt33XXjpjfg2hSiH7dZ9QR2jUTlIssvv3yIUm6zzTZVD6W5AJ588skQvfz4449p4ttIXA5pbns+zwRMwASSSiAbYUmixHPOPPPM1ETASR1PxfuVkruSyMf2FT9gD7AUBM6WdB4dM0OBqFxooYVK4UdF9cmaaMQlVcsiY7aBWQebCZiACVQMgYzCsqam5q36+vq1Ro4cqY022qhiBl6uAyFaGW0IcJ68cr2IyfV7gShK+W9c7Nmzp3iRseWXQMrLIQ3/L4pe/pTfXtyaCZiACZSGQCZhSUTscabAhg8fXhoP3et0Ag899JB23ZUZSlHiYzVJXxqPCeSJwL8iUblSmzZtQpRyjz1IXWsrBAHWqxO9/OGHkH72g0hcPlOIvtymCZiACRSTQCZh2UPS+ZdffrlOPvnkYvrlvhohsN1228UC/zJJ03cDGJYJtJDASZKuoI2tt946iMoVVlihhU369EwEPvrooyAun3rqqfhQvmSvzHSePzcBEzCBJBPIJCzDbvDRo0enbhhJ8ngq1rf+/fvrsMMOY3wfSlpD0h8VO1gPrFgEWkVRynBjnXLKKWIHs624BNhpz8t7ZLdG0ctpxfXCvZmACZhAfghkEpb1dDNp0iS1bt06Pz26lZwJPProo+rcubM++IAZM20h6fmcG/EJJjAjgfUjUbn+rLPOGqKU5Km1lYbAgAEDQvTyzz//xAEyPZCSyBkfSnM53KsJmEALCGQSlrw9Hzpw4EB17NixBd341OYS6Natmy666KL49Ack7dnctnyeCUQEiFBSCrRVu3btgqhMSWFlSCUi8MYbbwRxOWrUKDwgYom45DvYZgImYAJlQyCTsNxf0p2Mhg08Sy65pNdeFeHSjh8/PkQn+e+PP/4Y90jaJ2/RLQL/Cu+CtZSsqdQRRxwRRGVNTaavgQonkqDh1dfXB3F5yy23xF6x5tIL3BN0jeyKCZhAegLZPFH2qKmp6VtfX+/V/EW+m1q1avXNtGnTRkq6QBL/tZlAcwmsFEUp2f2tq666SieeeGJz2/J5BSbQr1+/sPwlMnaLE70Ma2FsJmACJpBkAtkIS/yfS9Kq0U/bJA8oT77xjX67pFLllmMubIykj/I0HjdT3QTIS8nU9wKrrLJKiFJuueWW1U2kDEb/3HPPhejl+++/j7d8FyEuyXtpMwETMIHEEshWWCZ2AAVy7GtJ60j6pkDtu1kTKBYBKuhQSUd77713EJXzzTdfsfp2Py0kwMZJxOWgQYPilqjUQ8UemwmYgAkkkoCFZeOXZYqkxSTxX5sJlCOBRaIoZciof/7556tHD9LS2sqRQO/evXXWWWfFrlNjnOglNcdtJmACJpAoAhaWM18OmLAjszZRV8rOmED2BLaLROWyiy22WIhS7rzzztmf7SMTSeDhhx8O0cuvv2ZCRRMicTkskc7aKRMwgaolYGE586WfR9JXkuat2rvCAy9nAl0lXcIAdthhB918881aaqmlynk89j2FwOeff65OnTrp8cepXRHsNEl9DckETMAEkkLAwnLmK8EU+BvRVHhSrpP9MIFMBOaIopQHcuAZZ5yhPn36ZDrHn5cpgQb5bQdG0cvfy3Q4dtsETKCCCFhYznwxV5REOID0LDYTKAcCG0eicq255porRCn3358UtLZKJnDXXXeF6OWvv/7KMN+OxKXTklXyRffYTKAMCFhYznyR2A1+W7QrvAwuoV2scgJHSboBBptttllYT7n66qtXOZLqGf6YMWPCussXX3wxHvTRkm6sHgIeqQmYQNIIWFjOfEU2i9ao/SNpF8v+mEADAtdIOo5/O/bYY3XttdcaUJUSOO6443TdddfFo+dGOL5KUXjYJmACJSZgYTnzBdheEhsg+K/NBJJIYLVo6ju8/Fx//fU6+mgCVbZqJnDDDTfomGOOiRG8EE2Nv1fNTDx2EzCB4hOwsJyZ+R6SDpK0Z/Evh3s0gYwE9otE5TxrrrlmmPreZJNNMp7kA6qDwMsvvxymxt955x0GTB5e8l3eXR2j9yhNwASSQMDCcuargKgkWsl/bSaQJAIXSuqGQx07dgyics4550ySf/YlAQR+++23IC7vuOOO2BvSA5yZANfsggmYQBUQsLCc+SIzl8QGnmOr4Pp7iOVBYMkoSrkT7l588cU67TTSF9pMoGkCl1xyiU4//fT4gEej6OUXZmYCJmAChSRgYTkzXdZXksuS/9pMoNQE2keicollllkmRCm3397Lf0t9Ucql/yeeeCJELz/99FNc/jISl0PLxX/7aQImUH4ELCxnvmY9JcHl3PK7nPa4wggwfXkBY9pll12CqFx00UUrbIgeTqEJfPPNN0FcPvTQQ3FX3SWxrMJmAiZgAnknYGE5M1LK4X3jMml5v9fcYPYEKCd6k6R9OeWss87Sf/7zn+zP9pEm0AiBs88+W+eff378yT1R9PJnwzIBEzCBfBKwsJyZJjngqGIxPSlcPoG7LRPIQGDzSFS2nX/++UOUcq+99jI0E8gLgfvuuy9ELydOnEh7YyNx+XxeGncjJmACJhBN+RrEjASoujNM0u0GYwJFJkBS66vp85///GcQlSuvvHKRXXB3lU5g/PjxQVw+++yz8VBPkESyfZsJmIAJtJiAI5YzI/yfJPJ03N9ium7ABLInQBk+cg6qc+fOuvLKK7M/00eaQDMInHTSSbrqqqviM1l6QXlQmwmYgAm0iICF5cz4Hpd0qaQnWkTWJ5tAdgTWlnSzpA1ra2tDlPLwww/P7kwfZQItJPDf//43RC/r6upo6VVJnSS91cJmfboJmEAVE7Cw/PvibyTpleg+YL3RGZIoiWYzgUISIAk/onK29dZbL4jKDTbYoJD9uW0TmInAa6+9FsTl6NGj+WxqJC69FMj3igmYQLMIWFhKO0p6OFpTeXb0/4dIWiSKXDItflGz6PokE2iaQF9JXfj40EMPDaJylllmMS8TKAmBv/76K4jL/v37x/0za+NcviW5Gu7UBMqbgIXl39ePwrqrSGol6TdJX0laWNIckjpIerK8L7O9TxCB5aIo5Tb4dPnll+vkk09OkHt2pZoJXHHFFTrllFNiBHzvMTX+STUz8dhNwARyI2Bh+TevAyWRZoj8gUwFzRZhHCxp99yQ+mgTaJLAbpGoXGjFFVcMUcqtttrKuEwgUQSefvrpEL388MMP8ev7SFzyXWgzARMwgYwELCz/H9G3UZQy/pe/JK0V5XrLCNIHmEAGAlR0CtWc9txzzyAqF1xwQUMzgUQS+PHHH4O4vP/+6ckxuHd7JdJZO2UCJpAoAhaW/385TpN0jqR5oqjlDWR+SdTVsjPlSAD1yAadPXC+V69eOuccbjObCSSfwHnnnaeePXknCvZAFL38Mfme20MTMIFSEbCw/H/yrSX9IIkdFL9IWkLS5FJdGPdbEQSY50ZUrrDwwguHKOVuuzEbbjOB8iEwePDgEL387rvvcPqjSFw+XT4jsKcmYALFJGBhOSNt1lmSRPBM9lUU80K4r4ojwA6IyxjVtttuG0Tlcsuxb8dmAuVH4JNPPgnicvjw4bHzp/o7svyuoz02gWIQSJqwpH4d6xpJGl0KayOJKNN9pei8yH2SBPkDSeOjnfBF7r5iuyPiTZSSlFXq0qWL+vYls5DNBMqfQNeuXXXppWQiCjYgil6yHt1mAvkiMF+kA9ACi+arUbdTEAKN6ogkCMsVJV3SqlWrLaZNm7ZQQYbuRpskUFNTM6G+vp4I7V3G1GIC7SRRGm/d2WefPUQpDzqIHOg2E6gcArfffnuIXv7xxx8M6o2oFOmoyhmhR1IiAsfU1NQcV19fj6C0lRGBhjqi1MKSDQ1h2+ECCyygFVZYIfysscYaZYS0PF397LPPNGHChNSpLSJst5XnaBLh9RGRqKzZaKONgqhce+1SBd4TwcNOVDCBt956K4jLV14JBcvqI3F5SwUP2UMrHAE2zDLLsy9dxDpglVVW0SKLUKfEllQCjeiIfSQNKqWwfERSe4Cde+65qTsPk8qwIv2i0sZhhx3G2NjxuWdFDrLwg7pK0ol0w8P2xhtvLHyP7sEEEkDgqKOOCi9RkfVzJo0EXJTycmHVOKXfpptuqksuuUT/+Mc/ymsE9jZkO0HHRdUKu5ZKWB4q6VbeSK677jptvfXWvjQlIjBx4sQQLY6sVPdDiUbf4m6p1sRTdUtauvrqq3X88ce3uFE3YALlROCaa67RCSecELv8XBS9fL+cxmBfS0bgCzKwUO3pssvCXkdbGRJ48MEHtcceIaPeM+xTKYWQmFvSxyQjv/XWW0OdZFvpCIwcOVKbbLIJDoyIBVLpvCmrnveOROV8bdu2DVGbzTffvKwGYGdNIF8Enn/++RCtHzt2LE1OisTloHy173YqkgBTO0ey9O2dd6iqbCtXAikRy96SziqFsLxG0nGkYBk2bFi5cqwYv9nhyU5PSRdI6lExAyvsQM6PWe27775BVM47L9VAbSZQvQR+/vnnIC7vueeeGEJ4yFQYkf9J+mc0JqZ6fpYU74pnBoNcyF9LmhYdw/rTp6KlMuRFZoMqCUH5wpiSwoYIC6WFt41yKf8p6SdJdQ34kQj3hQpg2kHSw4xjxIgRfikv8wu644476vHHH2cUXNehxRaWJB1/T1LrIUOGaJdddilznOXvPgL/ySefZCA7Sgp3hq1JAotFUcqdgxK/4AKdeSYb6m0mYAIxgQsvvFDdu3ePf0U8HBmJrUqD9LmkvSS9HA2MVGMIwqUl8Rk2V5Rxg1m6k3MUlqntVBq7OyQd4P0V5X9ZeTHYcsuwGuwbSayZnVRsYXmcpGvWWWcdvfEGWSpspSTAjs6NN95YNTU1b9fX13sLc/qLsUMkKpdeYoklQpSyffuw98xmAibQgMDQoUND9PLLL7/kk88icVlpL67ZCEvG30nSflE0MpeIZaUKS541b84xxxwiu8DKK5O+2lauBI499lhdf/31uE9RGQonqNjC8glJ21F7NtpBVK4sK8JvogpEFySdJ2l6QeCKGFx+B3G6pItocqeddgqicskll8xvD27NBCqMwBdffBHE5aOPPhqP7AxJF1fQMLMRlpTbulMSWVBYGmBh+fd36elHHHGEbr6ZLEO2ciVARa611lqrbsqUKbWSyOP8WrGF5fpxp0QriVraSktg9dVX13vvsTJBXJvRpfUmkb0zjcWu7wPwrlu3brEQT6SzdsoEkkiA5SJ9+vSJXUNkMTX+axJ9zdGnpoRlvMZyDkmzS/pPlIaFdZe5CEvWYqausST8y3d1OdsCtbW179TV1S3BEixnhCnnS/n3crAePcLWDKoVsqE1WDEjlkTFzibiwzSJrbQEUtIDEEVmmtc2I4FNI1G5xjzzzBOilPvtx2yWLSkERo0aFa7JBx9QmVQ67rjjNHjw4BAF4XvGlhwCd999d4heTpkS9qu8G4nLl5LjYbM8yRSxXDAqm0uZ4DejHvg3NvhQtpDNPLExXc56Tda6N7ZWs1kOJvAk8lL123777ePNHgl00S5lQ2DatGlEK+vfe+89dCS5hh6MzyumsKSm5Fokj+YLxlZaAqR5GjCAUr9i3et1pfUmcb0fEzMhWS+icrXVVkuck3ZI4sutVatWAUWbNm1E+qyVVlrJaBJIgNkRvvtfeGH6puZjJYXFWWVqmYQlw2JXPDsbto/GyJQh6poX11hs8tElkdg8qsKF5YuMncIchxxCsTdbuRKgtOvBBx+M+yMlhZyFxRaWIbXAQgstpDFjxmjhhRcuV5YV4TcL6hFKU6ZM+bmuro5dXF9VxMDyMwhENsIyRMBI/mxLJoHUiCVfcHfeeafWX399nX/++SIiYksmAYoIXHvttbFzCEsEZjlaNsKScoUfSuIJHG9eYsxLRemFJkbCk2gPYXYe0pUasSRV0oM8e9i0M8ssDNNWrgRSUgx1JgpdCmEZEqF26tQptfxXufIse79TKmVQG9yvjX9fUQrUs56SSIJuuOEGUa7OllwCDafC559//pBoeamleGbbkkyAmaujjz46dpEpcaaxmCIvJ8tGWDKekyQdIWndaM3knJLYNUld5dkkfRptnnwoGnwsLBvLY0m+4XItUUOC033+85//6KyzKi29aTndti339ZlnntFWW7HCQ6z7ZZc/yzumWzGmwttEuSsXfvjhh9WhA8FLWykJbLfddho+fDguUBucGuHVbmzOQVTOtdZaa4WXH9Iw2ZJNwMIy2dcnk3csW2Bq/O233+ZQNvMgLtncY6s8AmHzLuvViVYuv/zylTfCKhoRf7fRjn6WcJA1ZQYrhrDkTe3mtddeW2++mbqkpIquQoKG+uqrr2qjjTZSbW3t+GganMoQ1Wwh9QUADjzwwCAqya9mSz4BC8vkX6NMHv7+++9BXA4cODA+lHREpCWyVRaBvpK6MAvEbJCtfAmwWZJNO7///jv6cT1JMyUlL4awJLy/s3NXJuNGIjUAKQKivIzdkuFVSbwg+TBRyrAj/pJLLolLW5bEGXeaOwELy9yZJfWMvn376rTTTovdYy0i0UsSq9vKn8DCUYqhRZ599tm4Skv5j6pKR3DeeecJPSfpbkn7N4ah0MKSdWuhuvzo0aO17rosMbGVkkBK7srNJJV7uo/moqQkI6JysWWXXTZEKVkeYCsvAhaW5XW9Mnk7bNiwEL2cMGECh5ILEnEZ6knbypoApSwvp1LZI4+QJ95WrgT++OMPrb322vXvv/8+2nFXSfG64BmGVGhhSebM8527Mhm3ETn+dt99d5x5VtK/kuFV0b0I9yS97rrrrkFULrLIIkV3wh22nICFZcsZJq2Fb7/9NojLIUOGxK6xy4OKNbbyJfCKpA1Z7tCxY8fyHYU916233qrDDz8cEuQM27wpJIUWlq9S5sc7bJNxR6bkrjxF0hXJ8KpoXpCQmChlqA5w9tlni5C+zQRMIHkEzjnnHLF7OLJBUfRyUvI8tUcZCPybqixsimSPRU1NoSWHr0chCWy77baiYlKm/NeFvMrbSBpO0mIS4zp3ZSEvd+a2v/rqq5C7cvLkyVPr6+vJXflJ5rMq5ggSFCMqV1lggQVClPLf/+b7zmYCJpBUAv/73/9C9PKnn8i6o/cjcflcUv21X40S+B/ZRy688MJQEtdWvgTIJBMtGSM9FimGmnzRK6SwJGHmCS40n4wbiYTEJCaWRC6xaqpNeKKkqxj4v/71r5AiYcUVV0zGRbEXJmACaQl8+OGHIv8xefMimykZsxEmlsBGJHwnvywphpZemv2StnIlcNhhh4mKSVEO1u7pxlEoYUm1gfeoLuDclcm4jahEwuL4aBcXu7kq3bi3iVKS7konn3yyLr/88kofs8dnAhVJ4JRTTtEVV0xfvXNLFL2s9lRpSb/WXLCTXMEs6Zcps3/jxo0LKYb+/PNPDiZaGTZlN2WFEpYHSrqddRW8qdhKS4BNDhtuuCG5Kz+Nclf+XlqPCt476QcQle2oI02UkvWlNhMwgfIlQLSE6CX14SWNisTlTDn0yneEFeX54rW1tW/X1dW1oTb8ZpuRhMRWrgRS1jyTcPagTOMolLBksfVeONOrV69MPvjzAhOgfFbv3mFjJW+QbNypZKNEJaJy1g022CCsp1xvPXK42kzABMqdAGnrWHf52muvMRTCJ6QkGlDu46pA/7tI6rvLLruk7vCvwGFW/pB+/fVXopX66KOPGGx7SY9mGnUhhOVKksZKavX666/7oZ7pChTh8zXWWENjxoyhJ4p7Tl+sVISui90FNXSDcCYlAqKytra22D4UrL+vv/5aiy++uD7++GMtt9xyBevHDc9IgEgZUe/nn3++UTSZPm8uT3Zgbr755jr33HOb20RezyvE/XfXXXfp9NNPDzuGF1xwwaz8raurC+Lyv//9b3w8a1xOzepkH1QsAq9TleXuu+/WvvvuW6w+3U8BCPAcpWJSLmkKCyEsu1LIZMcdd9Sjj2YUtgXA4CZTCZAPbrfdduOfXpa0aYXSWSGKUm7N+K688kp17swa/8xGSpMpU6booouo7KiQ4iT19+eee05XXXWV7rvvvsyNFfiIQjzYC+xyxuaTxLcpZzMJx0yfp4OQbvzVICxhc8ABBwREd96ZW5lw/i5POumkGO9TUfQyhFVsJSWwD5tEKYhChNlW3gS22mqrePPc0ZJuzGY0hRCWvNb/4/rrr9fRR+OHrZQEUnZykevhb/VUWbZHJCrbrLzyyiFK+c9//jOrETKdBh++/FiL2fB3GkGkjhgxwsIyK6K5H5QkvqUQlunGj7DcYost4vJpucPN8xmFerFhiq1t27ZiLfjaa7MvIHujRCDRy/Hjx3PSD5G4fCD7FnxkAQgMpv6Ey+QWgGyRm3zsscdEgRtJvLDxx/lLNi7kW1iSiX0EUxrkrqzkiiabbLKJXn6ZIGByjdyVlHCcOHEiTraVNC653jbLM+YIQ9HSvfbaK4hKUltka1Qh4rwDD2SvmUJVotTf99xzz7A+qL6+XrPOOms45qCDDgr9YA0jSnAmT+bbb7+tNddcU7/88ou6d+8uKh5NnTpVq6yyStjZGpc2Ze0KKaCeeOIJsduO6e3LLrssTH9iX3zxRZjS54HL3xI7Y3lZi6fCedDz+4svviimB1lTSjGC5ZdfXvfff0hSAg0AACAASURBVL9I9fX5559r7rnnno6ESC4P4STMJmTii2jYe++9w3cJ4oGsBrwAvPHGG4FVS/lne59kikhm+rypfjKNn/Gx6Y7rPXTo0HBvn3/++Tr44IOzuv8y8UvS/dehQ4dw31599dXZXpbpx/F3x/2RMqvAwv5krB/IeTRlfwK7dF6Yc845dc0114ilDuQM5nvplVde0SyzzBIGyAYsnqFMsXLtysn4/uE58cEHH4Tv5v322y/8fzpLPS71/IbnpPssXfvsvOc5w5KdSAjmBSnfNbfffjttUa3u7Gwbzbew7CupCw/DW24hI0Tl2kILLaTvv/8+0QO87rrrxA0n6UFJRPYqxRaKopShPiXT12xQysV+//13cQ0/++yzIAYb/h631bVrV33yySeNRiwzCRtEH1kREKcUCOjXr1/YREVuPsQeb/SIpYceekizzz57EINnnnlmEFKsDeXLi2n5Bx98MPzOF/Btt902XVgee+yxQTgOGjQoVLTYY489NMccc4R2EJokxCfNEsdhCN0ll1xSrHtiqUqmL0JETWPGuNidm+5zZiyysXR8SYzNSyqiY9NNNw1LOhDovCwxzpbyz8Y/jskkHDN9nq6fTPfX2LFjwxQxLxs8qFmP+MMPP2iuuebKOP5M/JJ0//HChfjg3m+uIbqpqBUZ33kolmR/STd3sMk9jzeD49u1ayeSonPPPvDAA+Fe3WabbcL3Gxbfe7xUl5s1FH+IZF54M1l8XCGEJYVoRo4cqZVWYotLfuzdd98NMwh1dXVskiNayd6ZrCyfwpKQDt8KK/Kg3HnnnbNyoOFBRAFJDcMXKpb6Ow8VojAMmAgPDxgWcPOQprg9i9x5AMfVVUjIygYihC6AmHJpuAC/qfNYTI4fPNx5cPNWzBffDjvsEKJWd9xxR0ihcM8994QISjZ9P/XUU0363yxYGU7C1+gPl1w7lbJzkopOhAyXX3TRRUP0kJ2HuRr3EHwQZljD3+P2Mj34UzdXNIxYzjPPPOE+ida4hibZfMOXLdEq3i4pK9m3b1+xjqVhdap55503CEkEI8ZUPV/YTW3eQbjyMhFt1NKNN94YIqTx79y/5PLk4Z1NabW//vqrUaz8jfGT6fNsrkk6vpzPFzZR1sZykGYSlpn4Z+Mfx2QSjpk+T9dPpvuLB0Us0qmjzT3P9WPqONP4M/FL0v3HM2OfffbRb7/9lu1lafQ42uEF7JtvvuHzjyNxGWrQ2QpOYOmampq36+vr5yMSyfOTCDTfgRMmTAjfXSwrImrJ9+arr74akqbzfO3Tp0/4W+dZzncY93c6LdBwJNzLfP/RBpF9omy8RDf2/G/qmd+wzaaOSxexJMgR973//vvrggsuCIGJhhFL7nWeC0w1o2UYM8+AhqIzG1+JKvLyuf7664cZjUmTJjXKM5MWajh+Ztt4OeArUNJhudw9+RSW1GC+t6W5K9PdTEx1ICSZFsJ4IFNNZamllgpTj4TaV1hhBVFlhgvCD9OShNy56aLi6dP5MJXY1HnvvPNOiMgMHDgwhPJ5eCBiyMlFpJI+iXKla6Nh3035zx9cvi0WIbW1td9EuSsroc4uOz8vhRUJ37keyyyzTLPQcR358kNQYg1/jxvN9OBvSljyhckXHOKm4dssXzZRJDmIS754edtcddVVw3o6puR5wBKVYnMH6+wwvpyZAo6FJSW2EKZffvllEHoIWyJ88UvZH3/8oWWXXTZ80VGKa5111glT53HfmcBlEo6ZPs/UPp9nEpY8hBALjU3vpBNW2fLPxsdMwjHT5y0RluleXLIRlun44VdS7j8Ex5Zbbinu2dlmmy2by9LkMZ9++mkQlynRMFLfkDHCVlgCZ0jqw4swsyYNjRckvou4vh07dgyzHlwr0sERyOGZyt8SIovvw2yFJZF5XsD43uPlnCVDBKF4gW/4DE73vE71N91xTQlLNAPiED8IbhGUYsaq4ZQ556Mt+N5HYBKcItL+/vvvzyAss/UVv3nW0D8zVU3xTKeFGl6ryZMnh2Aczxwet5JCdZVsLZ/CksSZHQHEw665lu5meumll4LI48bjQcmDFyOqw1sPDyCM6UNA83AmYzwXkX9r+IDPdB4RSQBj3CBExgCdKiwztZHad1P+N5dVuvNScldeFxWML0Q3xWqTJw1RyrC47LTTTtPFF1/cor7zEbEk4slLQZQjNHwxIA7jNZbzzTdfeJNkKjeT8UDly5hoOBFG1mPy9s79Fdc1R/wiNBCWSyyxRBCRTC316NEjNM+LFkIhFpb8G77xN8UU6q677jrTmsum/IqT6jf2ebGmwukbYUQ5v3jdaao/+eSf7vpkEo6ZPk/XdnNfXHghzjT+TPxS/Sr1/ZeviGXqmLjnmXKN7LYoejk109+iP282AaqhrEUAJf7OSm2JteoEgvibfvLJv4PILJljqU/87OY+ZJkLL8lE5puavUznIUt9br31Vj3++ONBbKU+g9M9r+N19LSd7jieHY2tsUQ4s7SJGvcYgpHv5saEJd9naAsCAohgxsyMBDNocdvZ+kpfsbBkzE3xZNlXU1qoIc+UZXRcqG1zvSPyJSwJgY+tr6+fi0gZIdnmWqa3FG5a3kTohwtAqJ0IJVGghtErIH/33XfhC5iNEA2NB3G681iHFk+VcoPGv6cKy0xtNOy7Mf9jgdxcZo2dx4MnisaxmO7xfLZd5LZY6IeoXIcF4UQpedttqfHSwboUri8CreHvcfu8JHHNWMaAcR8R+cMQWIhIIiN8afIg48slFpYnnnhimIphjRGbb55++ukQSeEeZ30nyzqY2qQPvmwRlGzAQaAScWM5CX5xPm+i9HfvvfcGYYnPfJkgXHnrRXSyHINrzptubLzNE+XkLZYvlZQHbUsR5uX8dHzpIJ2wbCn/bAeQSThm+jxdP+nGnykimWn8mfgl6f7LxxrLxjgTFeJvLppifzMSl69me+19XNYEyBl1By/aTHE3Zaz55m+a5ybGVCsvwgMG/P9KLV6oiWDynM1GWLJ2kRc0+mWtOs98vm+Z0eG5nfoMTve85rs4tnTHsSm2MWGJlmC5HS/3GJsqmaZuTFgyDR5FA8OxjJlIJuvg47az9ZXzY2FJRLgpnsywNqWFGl4vZsmiZYOURJ6eMDbbuyFfwvJESVfhNGsGWmLcHAgHHq4YD23WWKVGYfj3H3/8UaxhYEqUG4K3FOqSN7RUQdjwM6a5sz2vKWGZSxup/af636ULMzX5s5TclSQRa77Kz59LzW2pUyQqw3IGRCWCOV+GcCN5L1FCrOHv/Bt//OxM5ouOt0pemhCIGJtwuFeJZiMEeeFp3759WJLBzm923RI5JhJJxJxpacRfvCYUgci0NOIT4z5mXQu7DDE+j3eFszYTUcg0OX8bpFYi92YsFPl33o5JtYQvCM3YmBpiKQj+4kOSLB1f/EwnLFvKP1sOmYRjps/T9ZNu/JmEZabxZ+KXpPuPqD4vQPwN5dv47o5f6KK22dTz99Pfli8Cj1CVhbXQiMemrKGwJGLJi3P87I6XABHN45mfjRbg5YEXE77zmGZHpCKwYmGZGiBK97xO9TndcU1NhXPvkomBl3+M//J93piwJHIbZWuZHrFESLM0IBaW2fpKX6kRy6Z48l2TyqKpa8S1iJ5RiDA27fyR602SL2FJuHTrfOSuZL0YD00gEFEizyARHm4yvsBZ18XaDOyYY44JaysQBlSX4Th+Z+oMtQ+gdMKSBd7ZnpfaDotj8Q3hQEQo2zaa8p+3rXwaYoSpgCgVT/PXJeTTqdzb6ifpBE4jMpPtLuNcukEAwoovCgRMw99zaSvJx55xxhlBpMZfeEn2NYm+ZRKOmT5P4piK6VOm+y/OYxm/kBXKN54XbGCLjN3LBERsLSfAIvDneDHmJTtdmsGGwpIZI9by8eLOCzHRPqaAWVueTgukuoygY3aSgArPY2ZwiPwRMWz4/E/3zE9tM91xTQlLgmIsN2L5HRsvCRAws9qYsGRmCn3C2nFmxAg44Gtq29n6mios+f+meKbTQqljp2ABaaKilF3NqsmdD2HJVOUrLFZlTURqOLm59ytCi/UJLOZlkFRYIPce05AITULd7GplHRpvPPGucGqTY6yVYHqc6FImmGzwyea8hu0QKcUn1lMQGs+mjXT+N5dVw/OYBiXNTPQ2xJwt615KbYRkydj/cxaOrBpFE0IyR65jnC4ni3NzPoSpSKKJ8ZrNhr/n3GDCTuALmmkX3qRzTT6dsKGUzJ1MwjHT5yVzPAEdZ3P/8R3PUg9mjwptKWvH6IpiHkQpKi2/bz4xriYJnRBqAjdh5BY7+tRTT9Wll4a9lU1aQ2HJgQgrpsTjHd0EEdiEizWlBVI7INIXLxtiRqZXr15B4JEjmH9vGKVr6pnf0Ommjku3Kxx/WeO44oorBh94kUFsp+4KR2wyxY9ffC8ToOK4f/zjH43uCm9MWzT0NY5Yopma4plJC9EmAj/Ks/w762UlpU/Q2cSVzoew7C2pezXkrsznX2uh2uKPMhJi1NOkYHwSjBwiJPriW+eCNAKTUmBMUc1LKimmvtlAZWsegY022iisIWW6PB/rUpvnRfmflUk4Zvq8/Ak0bwTZ3H+ISR7GPHyzrRXePG/+/ywiWUyNR2m4eNlFXP49f2lrSADRvSL6TxKzXw0F5nJRiqF5EE9E4qrVEIisS2RnOMEtRDZiLpo9LAsszC5EQRYSkf89NdwMy4ewJF/L6oShm5NPsBk++5Q0BFJyV2Zd17MIQCno20dSraR6SZc3IjARnCF7LmtnEZWpFWOK4KO7MAETqBICTJUiLqMpP0ZNwr7uVTL8XIa5kSQWlZOChR31lMtMFZikpDifdejVvtSGTUQstyBKz1Q4qY+YUSWDRzkY+z6Y1Yo2Om8dXfdmud5SYbmrpMFsqGAnrK20BNgEwhtjTU3NxPr6eqaUvy2tRzP0Th3fBaN/4QsqFpjsOLsijq6SKJe3JpsJmIAJFJoAG+C6desWd0OCZKI0XxW63zJrnzx+qRVPYoFJgIDv79XZMMIGQlv5EiDDDplM2DMtaYeWjKSlwpJw6eHsfCXjvK20BMghSub9MjJKu1Auak7WhhClzFRqsIzGZldNwATKgACZTIhexqnlysDlUrg4RdI8DTr+kWABGTvI0WwrbwKUzWUDtKRDSOXZktG0RFguUlNTM66+vn7+luaubMkAfO7/E6DqEWs6JO0maUjC2FCzt03kkyOWCbs45exOpjWOmT4v57Hb95YRcMQyK35NRSzJXbYJqcxOOCEk8LCVKQE2HEWlg1lDy6bfxuv5Zjm+lgjLoyTdwO5otvrbSkuAygXsQosWV69RWm9m6p01lqxhYgOP11gm7OKUuzuZhGOmz8t9/PY/dwJeY5k1s6bWWJJN/CnqcRdz41XWXvvAnAiQoonqhZLOomBbTic3cnBLhCXrUXYifQMLVltihNIJwWazHb4l/bT03IYF4ptqL9vjWupP6vlU0aCOerQp5u8af8kx7wpPzrWoOE8yCcdMn1ccEA8oLQHvCs/pBhkraaVGdoWTveMIqo0R9c23xZogl3bz9dxtTt+pfqamFmrK/2yOyWbsbAxi0xTJ4dl0s80224QiAxSWydaYcaZiUk1NzZT6+npSDH2S7blNHddcYUk29jfJnUTuysUWW6xFflDejlxUFpbNw0giVXJXkhxWEm+YSStZltg8ls0j7rOSRCCTcMz0eZLGYl8KS8B5LHPmSx5L7L2UMxGa7NadAzEXl7jNueU0J8SaIJc28yUsm9N3Qz/ZIU5eznSWzTGZxk+1KnJ+k5w9VViymSpbo/LfZZddxuFUD2hZlDDqtLnCkkzkvUhWHkXJsh3DTMdRNYeSTOQrJDk1+TCPOuqoEJYlyfeNN96o7bbbLpxHwlIy1FO4nYTsbPYgW3+q8TuVd0hQCnDap1IOdaaB98knn4SE6+naauqz1Bv3zz//DH5Rwo+3NuqEUkqKBPGk/CF3FRn3MaoJsA4lTgBLuSmmEMjzxo7EPffcMxxHJn6SocYl/rKFSnLVKGpMQettsj0v4ccVvPJOwsdv97IkkEk4Zvo8y258WJkTcOWdvF3AnlRlIS3cnXfe2exGp06dKmba3n33XfE8JXcxeoLrFGsCMoScdtpp00s6M7OZWj883XO3qec4ScBpg9KJsc7gGcpzO1WPoB94TmNE9Q455JCQcJ2lf9Td5iWF0ow8r9EtpOqhihTlJam6Ez//EXkkbf/jjz+CCGeM5FCNj0nnD32zMTrWDDBnzOgYjCqF+EkbbD6jDCy7u+GXjX377bfBb4JTkraUNCKb8zId01xhSXHj9QYPHhyv68vUT5OfE6lkRzAXioglIVmS5pK6gNJOCEuSjlJRhrRGlP0iKz8VWbhx+Ek1ir6z7vPAAw8MW+cRg+yUpobyv//971AUfuONN26yrXT9pApLkpBTXhJxS9R2yy23DDWcEbz8sZBRnxuLKCJlJilJSV4r6jbzB0W4GoFLCJsbA0NQc6Pwh5SLsZM6WufaWRKCrFKsoLXCKwVStY8jk3DM9Hm186v08btWeF6v8OxRNbdVWNeP0GquUSEGkTV0KKvqFMowI9SIwsWaoKGQTP093XM33XOc+2HDDTcUtbjRBHw/8BznWZyqR1LHxbOfcxCiaBOe2WRh4ZlPqkWmzwkeITBTp7mpykcFwNGjR4egE4UqEJdMWcfCMp0/fEbCdfQD2gIxzJrWWLQixvGFjbvNMUQwmkQSF6FDc9po7JzmCEvyGz1GfexoB3KLfGkoLClrRIQRAyBJ16kbjsjkonIzY5ThYyqeovVkuY+NSCFvF6h2BORxxx0Xao6eeeaZ4Wbl7QhB3FRbJMxt6jPO5cJSKYI/CtJUUGOaajcIuzj8zPoG+o0vfiogRDM+cjxvC5SlxD8iqvhH2oZlllkma6YpuSt/ra+vbyvps6xPLo8DKRl6EzvVYMQXgKvIlMeFK5aXmYRjps+L5af7KT4BIjekEuI5wfItSUcmcKlQ8cE0v8fDJd2y+eaba8SIlgW3eNYh7Ij8Mfs311zkYNcM4i6dsEz33E2nF6jlzQzp5MmTZ9IZ6YQlwSO0CeWkibDOPvvs4RmOiEV0okmYlUwVlsxiogvYdZ1qqcego5ryhzEOGzYslI7GEJE9evSYri0Qqfxb27Y8+nM3/MYXSR0lNT/83KDr5gjLayUdy+DykTOxobBMreuZuuaStxlCwA1FFwIttT45IWJu1qeeeipMUyMUqRmKMqcm7ciRI8ObUVNtEXJu6jPePviD4uZhBzbHYhzPmwsPMIz1DoSsEZaso0CI8m/ciNQ5X2SRRTR8+PBwbIcOHUKInbc01jrk+sfK1HmUQ5TY94G531plccZskbg8GG+J6Ma1vcvCeztZUAKZhGOmzwvqnBsvGQGWKFHONDLy8iEqSXVmaz4BHlzbMGMYlQ5ufktRnXBm7wgGEbQhIERpxGwilumeu+me8TyDm9IZ6YQl6Xg+/vjj6eOlMhyRTKa4mUaPKtbMICy5/9AxCMxUaygsm/KHMTK9znI6jI1nzLrGQStmeBGWLP3L1RCrMI/Wy7JvJm+Wq7Ccr7a2dlxdXd2i+aoLmq2wJGxNtI91iJmMKCAXhDci6nWyhgDRxpsK/56urXSfcROxhoEoIf9lNxw3G29cRCnjiCXT8yeddFK4+LwxI2oJs88222zhBkOQxsKSMVEOk+l9dngR6czFGFtU9Yg62yFfQAXbqVG98bDcgehlLtHdCuZS1UPLJBwzfV7V8Cpw8J9++mmIUqbsjGXzYNidYGsRATY7PLHsssuG2cTWrVu3qLHUkyknSDCG73UCLbGwJCDDDBWBG4xr2rlz5zA1nO65m+453nCTcOrv6YQl0/Ts+8DiiCXHM+OYKgwbRizZtd1wyV62whLRzbK6uFwm/+3evft0YUlSc4Rlc56D7O2INAulp/K6tT9XYUlG9v75zF1JaLlNmzbhLYWbpynlzuJSpt8JjbNmkQ06vJU0JjRZ5/Dhhx+GG5DoJT/0w3Q4axvStZXus9Q1lgjFeL0DNxbtIlwXXHDBsL6TyCjCkhuDqCrikfWW5IsihxpvHhhTNKuuuqrmm2++EGVlHWa2xtij+uwfSmL3HlVsKt3YnMTU+PJEqhGXrlFf6Zc8/fgyCcdMn1c3vcoaPUulEJXRZgTCS0Qpn6ysUZZsNLdKOpTnKAGalhp/l+xT6NSJpfQKm3Z4tnP9Yk2AcGPfAcvh+Dc2DKMBEJZsWGnquZvuOZ5OWKbqEQJBsfHsp1wyz9yddtpJ999/f9hoS1sN22u4xpL1jwSjEH9EeXnGM+OZusayKd2DsOZYtAX1xzmH6G5jy+xyuR7oE9aF1tTUTIpSDOV1CV2uwpI97LvnKwweg0Cojh8/PkxvspA0Lq3V8IKh+rmYGOsq8YOFsQ2NiCDhYgTf4osvHgQoC20RdnPMMUc4PF1bTX3WMJ3BqaeeKt6OWW9J+7wlkaqAKfcrr7wy7NziD4MFzghI3vTYHcaNwvR8XKOWPxam2VmzmYul5K68VFLXXM4t82MXisRlKE7LUgDKitqqk0Am4Zjp8+qkVnmjZmkW38ORsagNUUnFL1vLCbCI763a2tpZiVYS5GmpMXXMs4+padYtMtN4yy23iCnmWBMwXcvOc6JyRDF5trLpFb2ANfXcTfeMTycsOS+171hf8Ozfe++9tdtuu+m5554LgTB2krMnJJ2wpD3GwHOfKCdBJGYt8T8bYcn5LKVjjSbT3WgH+uUaYOgNxC4iMRdjRhWOkq6RlPeySbkIy1UljWXDDFvlEWy2lhNgwS9vXXwpxmmVsmmVRcPkrmQKQdIWkp7P5rwKO+ZcSaS+CNFjopfcn7bqIpBJOGb6vLpoVd5omZ4kysULfmS9SIdTeSMt6Yj+Q1UW0vGwMabaLF85MnPlhoAlKw47wwmmsbQPIcsG4OYaATc2/RD0kvQPlm42t62mzstFWJ4hqQ/5n1oyqHwPoJzbI9LG2wvhcdaA5mIpuStfkLR5LudW2LF7RNHLNkyZIC5JLWWrHgKZhGOmz6uHVOWNlPVniMoogvVDFKXMPjt05SEpxIjmjlIMrfDoo4+G5WrVZqUSlmz+ZYkAUVKmwplGJ6rLfozmGjO4UUrDIZJ2a2476c7LRVi+RMH5fOSuLMRAqq1N1nlEU+ckvexbbeNvMN4VInG5Nf/OMgTW19pMwAQqlwBTeUzpRUZxCKa+P6rcEZdsZEdRlYXNK08//XTJnHDH+SGw3nrrhd3skvaVdG9+Wp2xlWyF5b8kPU0yTnI52kpLgGSr0dqPaZJY+/J3iR8bOz9Dtlc2cBG9pEqTzQRMoHII1NXVhShlStW3yyWRMcJWGALPSPonxUrgbitfAqxVZW2npNGSZt6gkqehZSss+cM9OV+5K/Pke9U207Nnz1D+kjRgkvauWhCND5zMBewan5VdfIhL3tBsJmAC5U+Al2rEDTtjoywYKJ0ZkwSW/zCTNIKdqMpCOjzS2sVJzJPkoH3JngCbf6IiM2z2ZdNvQSwbYTlHlLtyGba+k5DTVloCKbkrD5I0sLTeJLL3dSNx2Y5k9iSXZW2wzQRMoHwJsFaW1DSsO5NEuRBEZZjTsxWMAFVADmT3dRTMKFhHbriwBEhxyC722traH+rq6qgB+VWhesxGWBI3vYsdyykJZwvlj9vNQIBUSFF91s+j3JVTDK1RAtzbRC6P4NOTTz5Zl19O4L0wRposduvxN0LqDJsJVAIBKpdRwYacgeTobWiZPs8XA/6+KDQR2S2RqKzPV/tup1ECa7Jph93Ib7/9dg2pcmzlS4AUh6RoZBsCj8RCjiSbJ+DdLPIk0XeuVWEK6Xi1ts0bO7vCJF0t6cRq5ZDDuGEUEnax+JzoZXPKX6Xrj2T9VGCq1jRcTJGx7ICqELvvHlKLBmMtHJkPYE4OWdZok1aLPHHZGjsYWc5QX18f6vGSkSI1cXGmz7PtpxKPy5Z/U9cvZkLuQIx8go1Zps9bwpZCF3zn8TcWGbvy+rWkTZ+bNQGyoJ/pTDBZ80rsgZ999lmoQBhVDtpY0iuFdDaTsFyupqZmXOvWrWd77733nLuykFcii7ZJJEvuyh9+IKuGtnVFiSyg/X3IllH0cpUFFlggCBWqMeXLKKtFrdhzz01O6jzWopE0nlRW7du3L8gmJsQi63Wo70slDPLbpQpLIsTkXSOTBBU1+vXrFyp2UFSAxL6ZjAIDG220Uag6QWUqOFPOjCTFWKbPM7WftM+ppnH99ddr9tlnV+/evVvsXib+ma5f7AC1itu2bRtqIPNwamiZPm/uQEgszXpK/JRETT+mvp9rbns+LycC80UphpYZNmxYKGFsK18Cffr0CZUHJd0vKX8PvyaQZBKWhEsvp3Yn61tspSXArryjjz4aJ1hftGFpvSm73vmiZGo8bHbK15oh0jawQ5/KSZSYTLWvv/46XC/WthA9IqpH/tHll18+HMbnVE+ipj0FB5jqQ6AiCklgS+lPhBTCbOrUqaEyBcesuy5LSNMbpdJ4MCP6eFvFD/paZJFFMp2a9eeUWCPtFRWzEBxEJlOFJQ8jct5ROQKjGAC52CjJtvHGvDSnN6JVW2+9dSjnRlSNheek2Iqn5DJ9nqn9Ul6f2DfWCyLOqXvMUgqic1yrluSpi9vOxD/T9Uvl16FDh3Dfcj81Zpk+z3QtGn5OhTWi3ZENikTlpFzb8fHNJnCspGsp3jF8+PBmN+ITS0+A2R6eJ3yHUkuEYkCF9iqTsAxpBignFEcJCu2Q22+aAJEnEtRSAUFSy0Ma1Qm7h6TzGTpChehlS8QWETmS3McltlKREi2kPOmgQYPCukumyykpSp1ZjCoWfI6wQHiSIgkxyBfAmmuuGQQG7VJnnsS4RPyIZCGoKHuWrdEGS1nwA6FHclwEDVPLjRn9EjnLxYhANhSWDc9nBmyEHQAAIABJREFUGhuhjP/Z7i5lN+pyyy0XpsJh3bCEa6bP042hlNcHkU1EkZdFxsf6J6LorGfDiA7m8/rQZjr+ma4fLzS8FDFz1Zhl+jzbe4mKYkQpuecj83ddtvDyexyV3P5BSifKLtrKl8Add9yhAw88kAG8KmmjYowknbDclFI/TL2ydsxWWgJExlLS5rCo2glFm39Jdo6il4tRvx1xmUs5zdRuTzjhhCAOefnKZAhDIlPx39Niiy2myy67LNS/xYjkMd0bC8t55plHfCmkvtQR2UQk7rnnnpm6m+lzpqB32WWX0AfCkahmY0buz1zzf2YSJg888ECImPLfbCojEaGFCz7//PPPgckss8wSSney5IDobbrPEea5WjGvD8Jx8803D2I8+tKfyd18Xp9M/DNdP15+9tlnH/3222+NYs30eTbXgilXRCURagL6UZTy4WzO9TF5JbCLpCGrrLJK/VtvvVXD0gxb+RJgNmHo0KEMgBzP03fAFXJE6YRlH0lnEGHIx3qfQg6iGtrmYUohe0l80fKHb2sZgaUjcbkDzVxyySXTp2xzaZaoIyKMqGVDYwqJFB3UZuUYFk6zs5b1iBhCiandeP0S0+lMgSKill566VD3HHFJyqRUY51iLhvpiFiyG5DNNUy1s8uXl5R8CpemhAmRRhiw4YxobFNRuIbsuB5s2IizIBCpPPXUU0N0D05Myab7fM4558x4GUt5fYhY8lLBSw1TzEQseVmII5Y4n4/rky3/TMJyxIgR2nLLLfXHH3/MsHkqhpzp80wXI6XMHIc+HonKzzKd588LQuAuSfvxvGFJgq18CVAKkhf52trab+vq6njb/q4Yo2lKWNZEuStXfuWVV7J+GBTD4WrtgzUS0XRrJ0lhW7gtLwQuknQ6LRE54kHPdHW21lTEkogbIpIF0xQWwHh4EqGKhSUPc6YX441E8cM5jliyYYWduLxx5mqIEqbcEWBE/Y466qiwfi+e9s/3VGtjwgQf4ul+RGUuSw723XffsJYUfkyPsiaTXeUIb65Rps8z8Sr19Yn9Y0kC075EsqlqRsSOpQhffPFFi6fCc+GfSVhmikhm+ryp6/H777+HMQ8cOD0d78UENDJdP39eMAIs4B49xxxz1JNiiE13tvIlwHcJy22iZOh/L3YvgjUlLPdg9xCRFKYnbKUlkJK7kreN1SSFbeG2vBFgLpqNPXOttdZaQbhks7kk/LVeemnYDU2ev1SbPHlyiDgiDJlCfOGFF8IULuKBTSMYESoiSkQS//zzz7CDm7ZiYXniiSfq9ddfD9PHiDLq9PIQZso8065qNgAhaGkTYZrr1HauZBsTJuQOZWPSs88+m5NYp2+ismxaevzxx8OOcDZyUHGKGRTEJvXgEWRNfU6kN52V+vo05tv48ePDEgVebPIxS5QL/0zCMtMaykyfNzbekSNHhvs52lTwaxSlbDynUa43pI9vLgGE/Wm8hPI9aCtfAh9//HHYVMnsiKQNJL1erNE0JSyZ1zuYaAdTNLbSEuDLl0hXJH6OKq03Fdv7GhFf1haHSCJRvkyG8KMaFWKxYUTuoosuClPsGLulEXpMSzDNjdAkTQs54tgQwVpPpowRgewOXmONNfTrr7+GlEFEHvly4BjEKeskk2CsEf3++++DK0TeEK9sUmK6HdFHvkk2JTU0onPHHHNM2iEw5UpS7Kj8WNhRj0hm+hheiBLEZlOfE6XNZJV8fbgemfinu368zKYa9yXLEFjf25hl+rzhOSkZLvjopUhUet14ppu2sJ+3iVIMLcFLLHl/beVLgJzBZD+RdC+5yIs5ksaE5eJMg88zzzzz8gWej7QXxRxQpfVF7kqmAKMHOJtOZvzGr7QBl34810kKqod1jE09SFPdJNci1ZBauh4JoUnydtYQ8tC3JYtAtV6fOE8ly6IaS3WV6fOGVzGlAggfkX6A1Da20hMIxSR4MWTtt618CbAMhmhllMWBqhWDizmaxoRlyF/l3JXFvAxN98V0RBQ5IwnVzNmJk+FmpXmBsERghtqqXAOyIzRlTz31VNitzDQ3u7azNaa4icoxVbzUUkupS5cu4Qs9XoOZbTs+rjAEfH3+5srueyLPd99NEbaZLdPn8Rk85Jh9IVofGc+a3PJaFeZSu9W/CbwsaWOW47A22la+BNhMymxYNBuwWbFH0piwZEfe9nyppiY7LrZj7u9vAim5K8kW7C16xbsxmBJnkdEarNdDXO63335N9o5ARFiy5i/bWuFMV5JTkpRCrLEkRQ4pb9ioZSs9AV8fBTFJgns2DjZWKzzT5/FV5DhEZbTeiylvqugwBW5LBgGiWg+sttpqYdNOw0wUyXDRXmRLgKjzE088weFEoRuvapBtY804rqGwXI8Fns5d2QySBTiFDSEpU09FXXxbgOGUY5NzReIyJJrs1q2bLrzwwnIch302gZIRYLMVJeUiY3MOopLNOrbkEKC60V5sGmODnK18CTCDRsWk2traL6MUQ6EmajGtobAkUeI5fBGwK9NWWgIpuSvZmr99ab2p6t5JR0RaolDCkOjlkksuWdVAPHgTyESAlElEKaNqYRxOGiF2HduSRYCgxah55pmn7u23365lk5atfAmwo5+8wdHfWklSd80gLGtqat6qr69fix2XbEiwlZYA0coojQ1b868trTdV3zuJ1JkaXzrOpcgyBZsJmMDMBKj0gaikOIAkEp0TpWSZlS15BC6jKguZGsjYYCtfAqQsY9MO+WElsabqrVKMJlVYEhF73EXnS3EZZu6TNCrUspY0OcpdGb6hbSUlwFZtxCW780NUn+i+zQRM4P8JsFwkZTqVSmGIyr+Tt9qSRmBeSeMlLUqVli222CJp/tmfHAhQLYmZTkksOemYw6l5PTRVWFIe5PzLL79cJNa1lZYAtaspOSeJt8kupfXGvTcgcL6kUE6HCjBMjc87L9/PNhOoXgLUdCdKec8998QQeks6q3qJlMXIt5b0JEt8onrSZeG0nZyZwAcffKCVV145/qCkqQlThWXYDU7FjsZylflCFo9A//79ddhhh9Hhh+xKlvRH8Xp3T1kS2DuKXs7Xtm3bIC4333zzLE/1YSZQWQSef/75ICqjVFmToiglG0JsySbATp3eDigl+yJl4x2VEp988kkOJSs6wY+SWaqwrMeLSZMmqXXr1iVzqNo7ZqF7586dxduHJOYlnq92Jgke/yqRuNwSH12pKsFXyq4VjABFBE444YS4/eciUfl+wTp0w/kk8LSkf1FpyWvG84m1uG0RiCIgJYlUXmsWt/eZe0sVlrdKOnTgwIHq2LFkU/Ol5lHS/klnQ5m5yB6gnHRJHXLn2RL4v/bOBN7nKv3jn7u4ZVRIJmQUEmlT+If2TSbJUhlSSCaUJWXLvmffx9LIREmLaaFmispoEVGREimVMZZKtmi66//1OX1/d67Lve6597ec7/f3Oa/XfRX3fM95nvfzc+7nPt9znjPNqxdmsja8rk5NBOKBAC9vyHGn9HQA3ePB7wD5yA15Q7gvb8iQIQFyKz5cyZWIotMVAOyKtfc5hWVrb8OnqYHEcipVqlSJtX2Bn5+nuJid5H9/+umnkL8s+2R24Kr5hsB9XvYygRUV+MOWp/PURCCIBFgwnb9E8ZpHAHzbxQM6psaJmq8INAfwIi3Wz31/xG3v3r3ZmsF7s0nD1wJoBCBbRMTSm9x1LJsnJCRMyMrKkqKMclSSkpL2ZGRkrOFhYwD8r5r/CNTxxGWtk046yYhLXY3mvyDK4vwJPPXUU0ZU/vqr2fq93hOV68TNtwT0c9+noUtMTNyQmZm5KFRn2RU3jnelI28bqe591XDF0ADbwQV5E4BtAfYxnlxLBjAXQDs6zfu/J0yYEE/+y9cAE+D1jhMnTgx5OB9ARwDpAXY5XlzTz/38I819AnyT6EJj6cENAL7wyhG6YNNRNhxPWDpnpAwSAR8S6OmVigJP6zF7qRstfBhFmWwIfPvttyZL6ZVA4189DGCy8IhAnBDgdg/ppQIGW6AKCErdRKAQBK7zspdVypYta8Rl06ZNCzGMHhGB2BF45ZVXjKj84YcfaATfrDBLydPEaiIQLwQkLC0iLWFpAUtdRaAQBE73xCU3yYM3IwwePLgQw+gREYg+geHDh+c8LcxKFRSVThwQiD4NzRjHBCQsLYIvYWkBS11FoAgEuEfHnPRv0aKFyV6efjo1p5oIuEeAFSqYpXzxRXNgmI2fXVf2mLkHTBYFnYCEpUWEJSwtYKmrCBSRAN+D82DPGVWrVjXi8rrr+LZcTQTcIbBixQojKr/+mhd/4UcvS/mKOxbKEhGIOgEJSwvkEpYWsNRVBMJA4BxPXN7AsXSVWhiIaoiwEZgyZQp69uS5M9N4PxxffX8btgk0kAj4k4CEpUXcJCwtYKmrCISRAGsQPcLx2rdvb7KXycmsVKQmAtEnkJ6ebrKU3rVwNIA1hXpF3xLNKAJOEpCwtAiLhKUFLHUVgTATuMfLXqZceumlRlzWrl07zFNoOBHIn8BHH31kROUnn3zCjqlelvIpcRMBEcgmIGFp8WGQsLSApa4iEAECvPeR+y7rJiYmGnHZoUOHCEyjIUXgWALz5s0zojIzM5Pf5LVwfPX9qViJgAgcRUDC0uIDIWFpAUtdRSCCBB73rsZD9+7dMXXq1AhOpaFFAOjRowemTZsWQvFXAPeLiwiIwHEJSFhafDAkLC1gqasIRJjAgwBmcI5rrrnGZC+rVasW4Sk1fLwR2Lp1q8lSrly5MuR6VwB/iTcO8lcELAhIWFrAkrC0gKWuIhAFAlcCYPaoRqlSpYy4vOOOO6IwraaIBwKLFy82onL//v10d7OXJX8vHnyXjyJQBAISlhbwJCwtYKmrCESJwKmeuPwT5xs4cCBGjBgRpak1TVAJDBo0CCNHjgy595wnKg8F1V/5JQJhJCBhaQFTwtIClrqKQJQJPApgNOds0qSJyV6eeeaZUTZB0/mdwJ49e0yWcunSpSFX+gN4zO9+yX4RiCIBCUsL2BKWFrDUVQRiQOAWL3tZoVKlSkZcNmzYMAZmaEo/Eli2bJkRldu3b6f5O70s5T/86ItsFoEYEpCwtIAvYWkBS11FIEYEzvLE5R85/7hx49C7d+8YmaJp/UJg/Pjx6NOnT8jcf3qi8j9+sV92ioBDBCQsLYIhYWkBS11FIMYE+PqyH21o06aNyV4WL148xiZpetcI/PLLLyZLuXDhwpBpYwBwW4WaCIhA4QhIWFpwk7C0gKWuIuAAgVZe9vKUCy+80IjLevXqOWCWTHCBwOrVq42o/Oyzz2jOz16W8lkXbJMNIuBjAhKWFsGTsLSApa4i4AiB8z1xeQXtmT17Njp16uSIaTIjVgTmzJmDzp07h6Z/3xOVX8TKHs0rAgEiIGFpEUwJSwtY6ioCjhFgUesHaFOXLl0wc+ZMx8yTOdEi8MADD2DWrFmh6fhBYLF9NREQgfAQkLC04ChhaQFLXUXAQQK8hm8O7WrQoIF5NV6zZk0HzZRJkSCwadMm8+p71apVoeGZuub1oGoiIALhIyBhacFSwtIClrqKgKMELvdejV/0u9/9DnPnzkXr1q0dNVVmhYvAokWL0LFjRxw5coRDbvRefa8J1/gaRwREIJuAhKXFh0HC0gKWuoqAwwRO9sTl3bSxb9++GDOGh4HVgkigX79+GDt2bMi1pz1R+d8g+iqfRMABAhKWFkGQsLSApa4i4AMCvQCMp50333yzyV5WrFjRB2bLxIIQ2LFjh8lSvvHGG6HuLGg6oSDPqo8IiEChCUhYWqCTsLSApa4i4BMCN3nZy7PLlStn9l3eeuutPjFdZuZF4NVXXzX7KXfv3s0u33lZyuUiJgIiEHECEpYWiCUsLWCpqwj4iMDvPXF5G20eOXIkBgwY4CPzZWpOAqNGjcLAgQNDf7XEE5Xfi5IIiEBUCEhYWmCWsLSApa4i4EMCwwEMot133nmnyV6WLFnSh27Ep8kHDhwwWcoXXnghBGAEgMHxSUNei0DMCEhYWqCXsLSApa4i4FMCt3vZy9LnnXeeEZdXX321T12JH7PfeecdIyq//PJLOr3Py1L+PX4IyFMRcIaAhKVFKCQsLWCpqwj4mMC5nri8lj5MmzYN3bp187E7wTZ9+vTp6N69e8jJf3mi8qtgey3vRMBZAhKWFqGRsLSApa4iEAACUwD0oB/33XefyV4mJGgZcCWuWVlZJkv5xBNPhEyaCuAhV+yTHSIQpwQkLC0Cr58oFrDUVQQCQuBeL3uZVKdOHSMua9WqFRDX/OvG+vXrjahct24dncjwspR/869HslwEAkNAwtIilBKWFrDUVQQCROAyT1xeVqxYMSMu27VrFyD3/OXK/PnzjahMS0uj4R97opL/VRMBEYg9AQlLixhIWFrAUlcRCBiBJE9cMoOJnj17YtKkSQFz0X13Hn74YUyePDlkKDOUf/Yylu4bLwtFID4ISFhaxFnC0gKWuopAQAlwzyX3XuL666832csqVaoE1FV33Nq2bZvJUr799tsho7iXknsq1URABNwiIGFpEQ8JSwtY6ioCASbA0+J/BXBumTJljLhs3rx5gN2NrWsvvfSSEZV79+6lITztzSwlT3+riYAIuEdAwtIiJhKWFrDUVQQCTqC0Jy5Z9xJDhgzB0KFDA+5y9N0j02HDhoUmZl1KikrWqVQTARFwk4CEpUVcJCwtYKmrCMQJAd7Uwxt70KxZM5O9POOMM+LE9ci5+eOPP5os5csvvxyahDfo8CYdNREQAbcJSFhaxEfC0gKWuopAHBHgHeN8Nf77ypUrG3F5ww03xJH74XX1rbfeMqLym2++4cC845tZSt75rSYCIuA+AQlLixhJWFrAUlcRiDMCZ3vi8ib6PXHiRPAEs5odAZ60f+SRR0IPLfdE5Xd2o6i3CIhADAlIWFrAl7C0gKWuIhCnBMYD6EXf27Zta7KXKSkpcYqi4G6npqaaLOWCBQtCD00A0LvgI6inCIiAIwQkLC0CIWFpAUtdRSCOCdztZS9PvuSSS4y4rFu3bhzjyN/1tWvXGlG5YcMGdvyvl6V8WsBEQAR8SUDC0iJsEpYWsNRVBOKcwEWeuLycHCguO3bsGOdIjnV/7ty5RlR6bY0nKjcKlAiIgG8JSFhahE7C0gKWuoqACBgCcwDcz//p2rUrpk+fLiwegW7dumHGjBkhHo8D6CQ4IiACvicgYWkRQglLC1jqKgIikE3gAQB/4Z+uuuoqk72sXr163OLZsmWLyVK+++67IQYPApgZt0DkuAgEi4CEpUU8JSwtYKmrCIjAUQSu8F6Nn3/aaacZcdmyZcu4Q/T8888bUXnw4EH6/oX36vv9uAMhh0UguAQkLC1iK2FpAUtdRUAEjiFQAsBcAK34nf79+2PUqFFxg2nAgAEYPXp0yN9nAXDT6eG4ASBHRSA+CEhYWsRZwtIClrqKgAjkSaAfgMf43caNG5vsZfny5QOLa9euXSZL+dprr4V8fBTAmMA6LMdEIL4JSFhaxF/C0gKWuoqACORLoJGXvTyrYsWKRlw2asS/ClZ7/fXXjajcsWMHHfuPl6V8PVheyhsREIEcBCQsLT4OEpYWsNRVBETghASYpuSr8VvYc8yYMejbt+8JH/JLh7Fjx6JfPyZnTfuHJyp3+cV+2SkCIlAoAhKWFtgkLC1gqasIiECBCXDjIV8Po3Xr1iZ7WaIEt2P6sx0+fNhkKRctWhRygK/9+/vTG1ktAiJgSUDC0gKYhKUFLHUVARGwIsAj4sxenlqzZk0jLhs0aGA1gAudV61aZUTlpk2baM4hL0v5vAu2yQYREIGoEJCwtMAsYWkBS11FQASsCbC4JcXllXxy5syZ6NKli/UgsXpg1qxZeOABluw07T1PVG6JlT2aVwREICYEJCwtsEtYWsBSVxEQgUIT4PU8Xfl0p06dMHv27EIPFK0HO3fujDlzeMmQabxOp1u05tY8IiACThGQsLQIh4SlBSx1FQERKBIB1nj8K0eoV6+eeTV+4YUXFmnASDz82WefmVffq1evDg3Pi7+ZdVUTARGITwISlhZxl7C0gKWuIiACRSZQ1xOXlxQvXtyIyzZt2hR50HANsHDhQiMqf/nlFw65wbtFZ224xtc4IiACviQgYWkRNglLC1jqKgIiEBYCKZ64bMvRevfujXHjxoVl4KIM0qdPH4wfPz40xAJPVKYWZUw9KwIiEAgCEpYWYZSwtIClriIgAmEl8DCAiRyxYcOGJntZqVKlsE5QkMG2b99uspTLli0LdX8EwKSCPKs+IiACcUFAwtIizBKWFrDUVQREIOwEbvCyl5XPPPNMIy6bNGkS9knyGnDp0qVGVO7Zs4ddvvGylG9FzQBNJAIi4AcCEpYWUZKwtIClriIgAhEhcIYnLptx9BEjRmDgwIERmSjnoCNHjsSgQYNCf/WyJyp/jPjEmkAERMBvBCQsLSImYWkBS11FQAQiSmAogCGc4Y477jDZy1KlSoV9wv3795ss5eLFi0NjDwPAudVEQARE4HgEJCwtPhcSlhaw1FUERCDiBJp72csy1apVM+LymmuuCdukK1euNKJy69atHHOvl6V8KWwTaCAREIEgEpCwtIiqhKUFLHUVARGICoEqnri8nrNNnToV3bt3L/LE06ZNQ48ePULjvO2Jym1FHlgDiIAIBJ2AhKVFhCUsLWCpqwiIQFQJ8GR2T87YoUMHk71MTEy0NiAzM9NkKefNmxd6djIAnkhXEwEREIGCEJCwLAglr4+EpQUsdRUBEYg6gXZe9rJY7dq1jbi89NJLC2zEJ598YkTlRx99xGfSvCzl/AIPoI4iIAIiAEhYWnwKJCwtYKmrCIhATAjU8sRlneTkZCMu27dvf0JDnnzySSMq09PT2XedJyrXn/BBdRABERCBowlIWFp8IiQsLWCpqwiIQMwIcK3iPeP30YKHHnoIkyfzjfbxW8+ePTFlypTQN5/wRCV/OKiJgAiIgC0BCUsLYhKWFrDUVQREIOYEugGYRiuuu+46k72sWrVqtlFff/21yVKuWLEi9Hc89TM95lbLABEQAT8TkLC0iJ6EpQUsdRUBEXCCwNVe9vK8008/3YjLFi1a4MUXXzSi8qeffqKRX3pZynecsFhGiIAI+JmAhKVF9CQsLWCpqwiIgDMESnri8k5aNHjwYAwfPjxk3AueqDzgjLUyRAREwM8EJCwtoidhaQFLXUVABJwjMADAyBxW8S7IUc5ZKYNEQAT8TEDC0iJ6EpYWsNRVBETASQK3AlgKoAmAV520UEaJgAj4mYCEpUX0JCwtYKmrCIiAswS08DsbGhkmAr4noPXFIoQSlhaw1FUERMBZAlr4nQ2NDBMB3xPQ+mIRQglLC1jqKgIi4CwBLfzOhkaGiYDvCWh9sQihhKUFLHUVARFwloAWfmdDI8NEwPcEtL5YhFDC0gKWuoqACDhLQAu/s6GRYSLgewJaXyxCKGFpAUtdRUAEnCWghd/Z0MgwEfA9Aa0vFiGUsLSApa4iIALOEtDC72xoZJgI+J6A1heLEEpYWsBSVxEQAWcJaOF3NjQyTAR8T0Dri0UIJSwtYKmrCIiAswS08DsbGhkmAr4noPXFIoQSlhaw1FUERMBZAlr4nQ2NDBMB3xPQ+mIRQglLC1jqKgIi4CwBLfzOhkaGiYDvCWh9sQihhKUFLHUVARFwloAWfmdDI8NEwPcEtL5YhFDC0gKWuoqACDhLQAu/s6GRYSLgewJaXyxCKGFpAUtdRUAEnCWghd/Z0MgwEfA9Aa0vFiGUsLSApa4iIALOEtDC72xoZJgI+J6A1heLEEpYWsBSVxEQAWcJaOF3NjQyTAR8T0Dri0UIJSwtYKmrCIiAswS08DsbGhkmAr4noPXFIoQSlhaw1FUERMBZAlr4nQ2NDBMB3xPQ+mIRQglLC1jqKgIi4CwBLfzOhkaGiYDvCWh9sQihhKUFLHUVARFwloAWfmdDI8NEwPcEtL5YhFDC0gKWuoqACDhLQAu/s6GRYSLgewJaXyxCKGFpAUtdRUAEnCWghd/Z0MgwEfA9Aa0vFiGUsLSApa4iIALOEtDC72xoZJgI+J6A1heLEEpYWsBSVxEQAWcJaOF3NjQyTAR8T0Dri0UIJSwtYKmrCIiAswS08DsbGhkmAr4noPXFIoQSlhaw1FUERMBZAlr4nQ2NDBMB3xPQ+mIRQglLC1jqKgIi4CwBLfzOhkaGiYDvCWh9sQihhKUFLHUVARFwloAWfmdDI8NEwPcEtL5YhFDC0gKWuoqACDhLQAu/s6GRYSLgewJaXyxCKGFpAUtdRUAEnCWghd/Z0MgwEfA9Aa0vFiGUsLSApa4iIALOEtDC72xoZJgI+J6A1heLEEpYWsBSVxEQAWcJaOF3NjQyTAR8T0Dri0UIJSwtYKmrCPiQQDKANAD7AGTmsH8rgPren9cBOAVAjRzfDz33BwA7juN3XQBjAZQFkALgCIAhAJYAyGtODtMUwPsR4KiFPwJQNaQIiIAhoPXF4oMgYWkBS11FwIcETiQQLwCwAMAvAHoD+MDz8UTP/QfAnQBWef2vBvAPAJU9EUsxm5cojQRGLfyRoKoxRUAEJCwtPwMSlpbA1F0EfEbgRAJxPACKRArLWgC6FEBYcszDABoBWJGDx0kAfs2RsZSw9NmHReaKgAgcl4B+cbX4YEhYWsBSVxHwIYH8hGUSgK8B1PZel28CULWA4pDZzcEA/gngDe+/OwsgSiOFUAt/pMhqXBEQAa0vFp8BCUsLWOoqAj4kkNd+R4rBhQDaAfiT59d8b4/k3wuYdawEoCEAvga/GcBiAF0BULDyVfgPufZ1UnheFiGGWvgjBFbDioAIaI+lzWdAwtKGlvqKgP8I5JexfN47wJPhuZUIYD2A2wooLHPSKAGAh4B6eRlM7bH032dFFouACByfgH5xtfhkSFhawFJXEfAhgbyEZSmtnB30AAAgAElEQVQAX3gHbNJzCMvtAC49wQGc0gDO9kRoTiTLAbwAYJ6XsdQeSx9+YGSyCIjAMQQkLC0+FBKWFrDUVQR8SCAvYclDOlcCaJPLJ4pCZi1n5iMOeciHh3aaAHjPe74xgOcA1AHwlYSlDz8pMlkERCAvAhKWFp8NCUsLWOoqAj4kkJewXA1gsicGc7rFOpODANTLo/5lSwBve6JyAIByALiO8GT5MO81eH51LEcDmBQBjlr4IwBVQ4qACBgCWl8sPggSlhaw1FUERMBZAlr4nQ2NDBMB3xPQ+mIRQglLC1jqKgIi4CwBLfzOhkaGiYDvCWh9sQihhKUFLHUVARFwloAWfmdDI8NEwPcEtL5YhFDC0gKWuoqACDhLQAu/s6GRYSLgewJaXyxCKGFpAUtdRUAEnCWghd/Z0MgwEfA9Aa0vFiGUsLSApa4iIALOEtDC72xoZJgI+J6A1heLEEpYWsBSVxEQAWcJaOF3NjQyTAR8T0Dri0UIJSwtYKmrCIiAswS08DsbGhkmAr4noPXFIoQSlhaw1FUERMBZAlr4nQ2NDBMB3xPQ+mIRQglLC1jqKgIi4CwBLfzOhkaGiYDvCWh9sQihhKUFLHUVARFwloAWfmdDI8NEwPcEtL5YhFDC0gKWuoqACDhLQAu/s6GRYSLgewJaXyxCKGFpAUtdRUAEnCWghd/Z0MgwEfA9Aa0vFiGUsLSApa4iIALOEtDC72xoZJgI+J6A1heLEEpYWsBSVxEQAWcJaOF3NjQyTAR8T0Dri0UIJSwtYKmrCIiAswS08DsbGhkmAr4noPXFIoQSlhaw1FUERMBZAlr4nQ2NDBMB3xPQ+mIRQglLC1jqKgIi4CwBLfzOhkaGiYDvCWh9sQihhKUFLHUVARFwloAWfmdDI8NEwPcEtL5YhFDC0gKWuoqACDhLQAu/s6GRYSLgewJaXyxCKGFpAUtdRUAEnCWghd/Z0MgwEfA9Aa0vFiGUsLSApa4iIALOEtDC72xoZJgI+J6A1heLEEpYWsBSVxEQAWcJaOF3NjQyTAR8T0Dri0UIJSwtYKmrCIiAswS08DsbGhkmAr4noPXFIoQSlhaw1FUERMBZAlr4nQ2NDBMB3xPQ+mIRQglLC1jqKgIi4CwBLfzOhkaGiYDvCWh9sQihhKUFLHUVARFwloAWfmdDI8NEwPcEtL5YhFDC0gKWuoqACDhLQAu/s6GRYSLgewJaXyxCKGFpAUtdRUAEnCWghd/Z0MgwEfA9Aa0vFiGUsLSApa4iIALOEtDC72xoZJgI+J6A1heLEEpYWsBSVxEQAWcJaOF3NjQyTAR8T0Dri0UIJSwtYKmrCIiAswS08DsbGhkmAr4noPXFIoQSlhaw1FUERMBZAlr4nQ2NDBMB3xPQ+mIRQglLC1jqKgIi4CwBLfzOhkaGiYDvCWh9sQihhKUFLHUVARFwloAWfmdDI8NEwPcEtL5YhFDC0gKWuoqACDhLQAu/s6GRYSLgewJaXyxCKGFpAUtdRUAEnCWghd/Z0MgwEfA9Aa0vFiGUsLSApa4iIALOEtDC72xoZJgI+J6A1heLEEpYWsBSVxEQAWcIPAJgJIB+AKYCCC38PQCMATAQwERnrJUhIiACfiYgYWkRPQlLC1jqKgIi4AyBUwHsBZAO4AiAMgB+AlAcQLL350POWCtDREAE/ExAwtIiehKWFrDUVQREwCkCjwF4GEBKDqtSAUwC8KhTlsoYERABPxOQsLSInoSlBSx1FQERcIoAs5Y/ADgph1W/AigLQNlKp0IlY0TA1wQkLC3CJ2FpAUtdRUAEnCOQM2upbKVz4ZFBIhAIAhKWFmGUsLSApa4iIALOEciZtVS20rnwyCARCAQBCUuLMEpYWsBSVxEQAScJMGvJU+I8Ba69lU6GSEaJgK8JSFhahE/C0gKWuopAHBOoAOAi7+sUxzjw8E4zAC8D4OtwtRMT+BrAlwC2eqfpT/yEeohA/BKQsLSIvYSlBSx1FYE4I1ACwIikpKTmGRkZ58SZ7/Hk7jAAQ+PJYfkqApYEJCwtgElYWsBSVxGIIwI3AVjEepDFixdHlSpVzFeNGjVQogT1ppqfCXz//ff497//jaVLl4bcmOyVbvKzW7JdBCJFQMLSgqyEpQUsdRWBOCHwTwCN6GufPn3QvXt3nHXWWXHieny5uXDhQtx99910+gMADeLLe3krAnkS0M1eRfhwSFgWAZ4eFYEAEugFYDz92rBhAy6++OIAuiiXQgT279+P0qVLh/6onwf6aIjAbwR0s1cRPglaSIoAT4+KQMAIXAZgDa9EXLFiBa699tqAuSd3chN48sknce+99/KvXwDQUoREQASyCehmr0J+GCQsCwlOj4lAAAnwVHXTbt26Ydq0aQF0Ty7lJtC4cWP84x//4F9TVFJcqomACPwva6mbvQrxaZCwLAQ0PSICASTAwzrLatWqhU8++SSA7sml3ASWL1+Ohg0bIiUl5fPU1NQLRUgEROAYArrZqxAfCgnLQkDTIyIQQAILAdw1ZcoU9OjRI4DuyaXcBNq0aYNnnnmGf/0QgKkiJAIicAwB3exViA+FhGUhoOkREQgYgcsBrGY5IWYrTzvttIC5J3dyE1izZg3q1avHbOW/vWzlQVESARE4LgHd7GX5wZCwtASm7iIQQAKzAHQePnw4Bg0aFED35FJuAl26dMHs2bP514NZBF+ERMDnBJhZLJ/rK1y/IYdu9noFwK9h4sRf5Hbl+joUprFjPoyEZcxDIANEIKYEaiQkJGwoU6ZMCrOVFStWjKkxmjzyBDZv3oxLL70U6enp+9PT03lN547Iz6oZRCCsBOoAuAVAYwA1AIRLRIbVSMvBKDY3A3gNAE/UrbN83pnuEpbOhEKGiEBMCIxlHfRevXph/HhTvlIt4AT69u2LcePG0csJAHoH3F25FxwCFJKhr8o53eJtYOXLlz/qK0d9VucI7Nu3D7t27Trq6/Dhw7nt/MYTmBSZpnSDX5qEpV8iJTtFIPwEKiQlJX2amJhYhtnKCy64IPwzaESnCOzcudNkK3/44Yf0rKysWgA+d8pAGSMCxxK4D0A/AOeGvnX22WfjlltuMV9XXXUVSpYs6XtuBw4cwLvvvmvKf/Hru+++y+nTVwDGAHjCD45KWPohSrJRBCJDoD+AUffffz/mzJkTmRk0qlMERo8ejQEDBtCmxwF0cso4GSMCRxO4E0BfALX513Xq1MkWk5dfzvOGwW48YBcSmevWZb8V/9gTmE7XnJWwDPZnU96JQF4ETklKStqQkZFRZdWqVahfv75IBZzAzz//bLKVX33F5Ie5F5z3g6uJgGsEGnoZyutoWPXq1dGvXz+0b9/eNTujZg9vyBozZgy2bNkSmnOFJzCXRc0Ii4kkLC1gqasIBIhAVwDTW7VqhUWLFgXILbmSF4EZM2aAtyoBeBZAa5ESAQcJ9AHAfd9mvyT3A6uu7v+ixBvRKDC5P9NrzOiaDdMuNQlLl6IhW0QgSgQSEhI+zsrKuvT111/HzTffHKVZNU0sCdSuXRsff8w3aWgE4I1Y2qK5ReA4BOYC4H5KDBkyxGzZKFasmEDlIpCWloZRo0Zh2LBhoe9w32VHl0BJWLoUDdkiAtEh0BbAfG58f+01VrZQCzqBBQsWoF27dnSTp0tZokVNBFwhwBPe8wFcRSHJ17533XWXK7Y5awdvzeL2AApNAO8C4D9wniSPeZOwjHkIZIAIRJ3A2wCue/7553HnndwfrxZ0Atdffz1WrOC2LLQE4PTG/6DHQv4dRYD7KLkX58yaNWti/vz55pCOWsEI8FAPf2HctGkTH9jjbXEx/9Bj2SQsY0lfc4tA9Ak0A/DSFVdcgffeey/6s2vGqBN4+eWX0bx5cyQnJ3+Qnp7OQztqIuACgSpepq1Cs2bNjKjUdbL2YTl48KARl/x3DmAnM78AttmPFL4nJCzDx1IjiYAfCHD1aTp37lzcd5/ZzqQWcAL8of3KK7yNzuzD8kUdvICHRO4BSZ6orH/bbbeFPp/iUgQCTZs2xZIlSzgCqz1QXGYUYbgiPSphWSR8elgEfEXgegBvXXTRRWBB9KQkru1qQSbw9ttv44YbbuAhiC/S0tJ4fWPMftgEmbN8sybA19+tLrnkElMU/NRTedW3WlEIHDp0yBSL37BhA4eJaeUHCcuiRFLPioC/CCwAcM/EiRPx8MMP+8tyWVsoAm3btsVTTz3FZxnwyYUaRA+JQHgJ8AaZvqVKlTKi8sILLwzv6HE82ueff44rr7wS+/fvJwWWbeKNRVFvEpZRR64JRSAmBLgjfi2vQmO20uV7dGNCJ4CTcmN/3bp1kZKSsjM1NZU/vfcF0E255C8CZo83TWZFClamUAsvAd7W07hxduGH5gDM5stoNgnLaNLWXCIQOwIzADzI+nBDhw6NnRWaOWoEunbtir/85S+cjwXvFPSokddE+RDg3YS1J0yYgEceeUSgIkSAb6V69erF0T/ibZgRmibPYSUso01c84lA9AlUS0xM3FCyZMnizFYya6kWbAJbt2411zf+97//PZSRkcG9ld8F22N55wMCnQHMqlGjBr744gsfmOtvE88//3xs3ryZTnQBMDua3khYRpO25hKB2BAYDeDRnj17YtKkSbGxQLNGlUD//v3x2GOPcU7uq9SG2qjS12THIVAsKSlpe0ZGRrmnn34abdq0EaQIE1i4cCHuvvtuHtLcnZGRUQmAqaQejSZhGQ3KmkMEYkOA98gyW3lHVlZWyYEDB+LVV1/Fhx9+yJqGxqKMjAzUq1cP999/P/785z/HxsoCzko7V69eXcDe/ui2fv163HHHHfjqq6/CZvCePXtMtnL37t2ZvLYTwKdhG1wDiUDhCHA7xuDrrrsOrFSgFh0COS5GGM6bMqMzKyBhGS3SmkcEok+gK4DbAVzL19/ffvstbrzxRlN+5tFHHzXWjB8/HsuXL8eyZcuib53ljGeccQZ+/PFHy6fc7h4JYTl27Fj062cOgzp3h7Db0ZB1ESJQCsBeAIlvvfUWKHbUokOAvLnmA8gEUAaAOS4e6SZhGWnCGl8EYkegU2Ji4ujMzMzTb7rpJiMev/vuO3NlGst8MGvJ0hRr167FH/7wB7zwwgsYM2aMqW9ZokQJzJo1C9wPxSwh76T19usc8+eQe6yfxn5NmjTBiy++iMTERHObxqBBg8AyGDwBysMk+Y2XmppqCrezP+/A5TVv8+bNQ+fOncFXOw0aNMBzzz2Hs846y0z70UcfmVsnbr31VrzxxhvcU2jsvvbaa833WQh++vTpxieWN2HpHT77f//3f0Z8tWjRwvRjJnfw4MH4+OOPs6PF/+/QoQMuvvhibNu2zdxUxJOsPPxE33iy/q9//athxzZixIjs8Vu3bo3Ro0cbMZ+fv7mFZV72Hs+W432sfvnlF5Ot3LJlC7/NIsm6Xil2//40828E7gGwILQGCUp0CTRs2NAkDwC0BWBqj0W6SVhGmrDGF4HYEeCm7Zm8D5z3gofa7NmzjQBKSUkxe506duyI7du3G0FCcVixYkU8+eSTRqCtWbOmwMLys88+M+VtWO6Cr7z4ipeHSN5//31kZmaifPny5pUvxW1eQnXx4sVGSHIMNp4epUg855xzjF0UjjkbhRnnpCjmDTMUnRSyX375Jfbt24dzzz3XCOKyZcuCe0wpXClup02bZuxifzZuBahWrRp69+6dPfzGjRvNNgEKUwrM3bt3m5p73EpQpUoVzJw50whNftF3+sy5KDjp+6effmr8LaiwzM/e3Lbk9ZFizB544AF+m/eB815wNRGINQEuPnfy31y3bt1ibUvczc/1q3v37lFdEyQs4+5jJofjhUBCQsLarKysOrnrxWVlZRmxxowlX5WwPfHEE+au2aVLl5o///rrrzj55JNNoV2e4CxIxpLiiuOGXldT4P3www+gkGWjcKPA5dh5jffBBx/g9ttvN6KWGY7f/e535lmOmZewvPrqq3HgwAEkJCSYLOdJJ52E77//Hnx1nrM9++yz+Nvf/mYym/z+eeedh507d6J48eJmbM5dqRL3uP/WQkL5559/NhnPBQsWGAEbYsS/ZxaUWULyY1bg73//u3mWgnXAgAFWwjL35zKnvbltyeszzEwsM9AAWMjuN3WuJgKxI5CcmJh4ODMzM+Wbb74xvyCqRZcA35pUrlyZb1lSMzMzSwBIj7QFEpaRJqzxRSA2BHjs8umbb74Zr7/++jEWPPTQQ0ZYMiPIxhPEzLbx1XWo8XU4M5gUdQUVlnwlzYWMja+MKb5Cc/C1Ok+Epqen5zses5bMKvI1NzN/M2bMwJEjR/IUls2bNwd/aOW0m5lMZhVZy41Ci2KTIvf3v/893nzzTdOVRYT5Gp0/7FhTj9sDcjaKOfL7z3/+Y/6afvD1dk7xyb+nUKWw5OtyvspmW7VqFXjrjU3Gkgep8rI3ty3H+0iFToHSJACNYvOx06wicBQBFuh+sX79+ubfhFpsCHALEX9xBsC9P6ZAfSSbhGUk6WpsEYgdAW6quXHRokVo1arVMVbkFpYURi+99JLZa8jGLByzhQcPHjSCk6/M+XqZjXs1+WoltOcyNDjFT0GEJTOmBRnvp59+Avcqco8QBWBeGUtmSb0rzLIzlhTD//znPzFlyhTzypuv/SmauQUgJCyZEVyyZIkRoBUqVAi9Qs5mRX8aNWqEHTt2mL+jKOYzIUY5oVIIr1y5MnvLATOzLPlDYUlhm5e/OfdYUhjmZW9uW473sWKG1/OttXdXcOw+fZpZBH4jMA/AvfyFLHRgUGCiT4CJA65HAP4GoEOkLZCwjDRhjS8C0SfQBMAS7g/0fks9obCkeOIhFWYoeRiFmTe++n3nnXfM62K+xubeyDJlyuDee+81+wYLKywp4vIaj3s7mdHkvk82HtrhPkmWQuLczFxSJIYahVnt2rWN2PvjH/9oDg3xEA6FGMUes4kUj9y/2LJlSxw+fDg7c0LxXL16dZQsWdKUQOE+zJwtt5hjGZ8LLrjA+E6b/vWvf5ksJuemeLztttvMoZlTTz3ViHlmXCks8+OXU1jmZ++JhCVfz3P+pKSkDzMyMi6P/kdOM4rAcQlsB/AH7hHWneCx+4Rw/bjoIt6TgH8D+N9+nwiZJGEZIbAaVgRiSIAb/VrMmTPHHEo5XsudsWQfvoLmb7ahE9TcG8lsHhtf0XLfILOGd911lzn8woM5uYVYQTKWPJWe13h87UzhytfW3DPJfZDMpvK1PDOXnJP7GC+77DIzNYUZDyc1bdrUiGAKT/p9xRVXmFf4tIcCkuWWhg0bZsTXgw8+GCrHY+batWvXcbcLHE/Mcb8qhStbsWLFzAGekC30iftUq1atauahHTzAkx+/nMIyP3vpR87sae6Ycl8qRTWATgAej+FnT1OLQE4C3M+XxH3VOX8hdAERfxns27evWWt4qI9vaEJrBO0LUt1c+sftQCxdDOC3IsYRbBKWEYSroUUgBgSuAfAvlunh9Y2uLebh5lGUOpDc/8maniNHjjQHhYrSKGhZjognwyk4eVcvhSkPC0W68RU8twMUK1bsy7S0NKYlUiM9p8YXAY8AL/zmLzKHjkOkPICd3NfMbL9rjWXHeBiP+w/Z+IspS6JxvzbfXgStbu6ZZ55pDi0CqABgVyTjIWEZSboaWwSiT4BKpj0LnzODFvRWWGHJmpPcc9mlSxdzcKeojQdv+NqeP5z4Kpw/mJhp5Wv/SDdmXbmFAABrJf12GktNBKJD4BdmJAFMBMCrY3MKzNoA1tWqVcv8kutS43YbvgXhwUb+MhhqzKwys3fPPfccVTeXB4+OV+P3RHV0XfKZ5eS4XgKowxLAkbRNwjKSdDW2CESXAK/v+5ivq7mQ5y63E11TNFs0CDDOfBWfnJy8Oz09ndnKYF1NFA2ImqMoBHoAGMNbdQBkeXfThwSm2evNLCC3kLjW+Mv38OHDzd5sVn/gf0O/COYsb5Zfjd/86ui65i+rYHj1gW8D8FtduQg1CcsIgdWwIhADAlMBdOed4MzIqQWfQI8ePcx+VwAjAQwKvsfy0EECvK7xdM8ubsMICUy+bp3Kg3i8ocrFRtHIKhd808CDfqHyZnv37s2uQpFfjV++Ni9oHd1Y+88DkF45tM4A5kTSHgnLSNLV2CIQPQJVkpKSPi1RokQJZrFCh26iN71mijYB1s3k663Dhw9nZWRkaC2PdgA0X34E0gDwdF9NHnbjoRjXGytG8GAhKz1cfvnl2cIyvxq/3KedVx1dVr5wqQ0ZMsRkaFliGEBEA6LFyKXIyxYRKDwBpigHsr7k1KlMXKoFnQBvNuLBIwBMWfKVpJoIxIIAt1+U8Sb2RcaS5cdYPo37P3M2HuJjlYkWLVoclbHMq8bv119/bQ7OHa+O7umnh5K4sQjJsXMqY+lGHGSFCPiFwBnJyckb09PTy3388ccmi6UWbALcA8Y4e8XbWXvJrdMRwcYv7/5HgL/QPOYd4PHNHkvujeShHdZ/vfLKK4033Af6pz/9CevWrUP58uWz6+byJHVeNX7zq6Pr2odEeyxdi4jsEQG3CfD493heuxiN8jZuo4gP6/i6rndvHgIHj4PfGx9ey0sHCfjyVDg5UlSOGjUKu3fvBm8DY/khvi7mQR62nHVzue3keDV+86uj61qsdCrctYjIHhFwl0BKsWLFNqalpZ3Hm2CuuYZlLNWCTIDFjvlDYtOmTXTzWgArg+yvfHOagG/rWIaDamHLnYVjbtsxVMfSlpj6i0D8EuDVOnO4J4g30qgFn8Djjz+OTp14wQ541c7twfdYHvqYgLM374SDqV+EpW7eCUe0NYYIxAmBpKSkNRkZGf/H+7CbNGHZuGA17nfivdu8czuvVpA+NlTGjh0LXi3JW3l4fzfLkbjU6tevb+4rBxDxenQu+S1bfElAd4U7EDbdFe5AEGSCCPiEQCsAi2688UYsX77cJybbm8lbbXh/eX6tIH0KOvOMGTOOEpY8EepKe/bZZ9G6dWua8yaAot1D6YpTsiPIBOZxD/Do0aPx6KOPBtlPp33j/tD+/fvTRt7M1iHSxqrcUKQJa3wRiByB1wHc/PTTT6NNmzaRmyXMI+d3DRpPtXfo0MGcwuSG+SlTphyVsaTIY008Xr12ySWXYN68eWavYSiruWHDBvAQEwsd8x5glgGZM2dO9oZ8Fo5/6qmnzEZ9CjT+wPv222+P8pAHoHjamoKdInPhwoVhJlD44Ro1amQKOQO4G4A7hhXeJT0ZbALNuWWDWXZei6gWGwK8D/2DDz7g5C0ARPw3ZQnL2MRZs4pAUQncwgoZdevWxYcffljUsaL6fH7XoG3cuBH16tXD9OnTjcDM+Zp7165d5vpCFoDnRnSKaYpLvrIOCUu+8iETiu3bb7/d3KHNWz/ef/998HssMbJ582aULl3aiM9PP/0039fsUQVzgsl4HRtLhiQkJKzLysqq65JtskUE8iCQnJiYeDgzMzOFt9Scc845AhVlAvzFuXLlykhMTEzNzMwsAYD7XiPaJCwjileDi0DECDwP4M6ZM2eiS5cuEZskEgNTWOZ1DRpLf1AY8kYLvv7OKSznz58PZixffvnlo8zK2Yfikb+dHzx40PShcOTeUxZDnj17ttkyEDrk9Nxzz2HAgAG+EZYtW7Y0WVgADwCYFYnYaEwRiAABs1bx6tFu3bpFYHgNmR8B/pLOizMAcPFoGQ1aEpbRoKw5RCC8BFjR993q1aub7F3x4sXDO3qER6OwzOsaNL7iZh05Hp5hyykax48fb7KOFJg5W25hydfFXuFw0z/0Z7725ut1775c82qubdu2vhCW7733Hq666iqK7a8yMjIuBsD6gWoi4AcC9wBYwFttXDsI5wd4RbWR9Ti9PfhtATxV1PEK8ryEZUEoqY8IuEVgLoD7xowZg759+7plWQGsobDM6xq0nTt3ZgvB3MKSgvL55583N2QURljyhPfKlSvNGGz8Lze053fivADuRKVLx44d8cQTT3CufgDGRmVSTSIC4SFQCsBeAIlvvvmm2bqiFh0Cb7/9doh3pnft5v5ozCxhGQ3KmkMEwkfg4oSEhE/KlSuXGNprGL6hozNSfteg5cww5haW3GN50UUXgQd8KlWqZLYAlC1bFrfddttReyzzyliuXbvW9N2yZQtOPfVU8wwPErkuLPk6nwXRExISvveylXuiEynNIgJhIzAMwGDucabYUYsOgeuvvx4rVqzgZMMBDInOrICEZbRIax4RCA+BSQB6snQHX+36seV3DVp+wpK+cn8kT4WnpaWBWwGYxdy6dWuBhCWf79Wrl9mjWbVqVSMyeWKcwo2tXLlyWLx4cfbdwa6wffjhhzF58mSawzuZTc0QNRHwGYFiSUlJ2zMyMsr5rYqFzzhnm8tqFnfffTe3z+zOyMioBCAtWr5IWEaLtOYRgaITODspKWnjySeffCqzldWqVSv6iDEYIVa3VRw5cgTcq8isSbFixTBx4kSzB9Pl+9V56IjZygMHDvySmZl5CYCtMQiZphSBcBDozENnNWrUwBdffBGO8TRGPgTOP/98UwEDAE93zo4mLAnLaNLWXCJQNAJD+TrjwQcfNPUV/dpiJSxZRL1z58545513zKtwvkbnvsUKFSo4i3Lo0KEmQwvgLwC6OmuoDBOBghFYB6D2hAkT8MgjvGZcLRIE+Esz384A+AhAnUjMkd+YEpbRJq75RKBwBEqnpKR8lpqaWoF7BevUifpaUTir9VShCezbt89kK5m1BMC6lfyhrCYCfibQLFSgm4fwbrmF5XjVwkkgVO/WG5MF6o+uzxbOyfIYS8IyCpA1hQiEgUBPAJPuueceLFiwIAzDaQjXCUyaNCmU1WGJEJYKUROBIBAYA6BvqVKlzNaUCy64IAg+OeEDt/awLBlvHPOqR7CKRNSbhGXUkWtCEbAmkFSsWLGNaWlp57/11lvgSTbqMNEAAAXNSURBVD+1YBPga3tmK3kTEQDWZ9FR2mCHPN68WwSgFW/Oevfdd83WFLWiETh06JARlbzWFsCzAFoXbcTCPy1hWXh2elIEokXgPgBzmzZtesytM9EyQPNElwD3frJ2JYBXAPD1oZoIBIlAEi95AFCf1RleeYUfc7WiEODPhyVLlnAIXgp+FYCMooxXlGclLItCT8+KQBQIJCcnr0pPT6/P6wybNZPGiALymE9x5ZVXmvvNAcRkj1TMAciAeCBQxROXFbiusXTYaaedFg9+h9VHXl/brl27UNJhpycqt4V1EsvBJCwtgam7CESZwJ28JEaFhaNMPYbT8T5w3gsOgJWNte8hhrHQ1BEncB0AvhY/s2bNmkZc6mBiwZnzOluKyk2bNvEhXpzA19+mInosm4RlLOlrbhE4MQHeX3gLF1zea60WfAKNGzcGT3YCaMc7loPvsTyMcwKVAcxnpo31ZZ988kncddddcY7kxO4/88wzaN++vbkswsv8cr345sRPRr6HhGXkGWsGESgsgZsBvH7ZZZeZqwfVgk/gjTfeMHel89rOrKysy4LvsTwUgWwCcwFwPzmGDBmCAQMGmIsM1I4mQCE5atSoUH1bfvMJAGZDtitNwtKVSMgOETiWgDk5OX36dHTtqtrY8fABad26NZ59lgc60Q2Af6vgx0Ow5GMkCPTxyuSgfPny6NevH7p37x6JeXw55tSpUzF27Fjs2rUrZH9fAONcc0bC0rWIyB4R+I1AfQCrzj33XPD6xlNOOUVcAk7ggw8+QIMGDXi377aMjAxe3/hzwF2WeyJwPAINAbD+Ivdfonr16kZg8rVvvDZuDxgzZgy2bNkSQsB9lKwHusxFJhKWLkZFNokAMAfA/Xzl0b9/f/GIAwKdOnXC448/Tk8HABgdBy7LRRHIj8AdnsCszU481MObevh1+eWXB57cmjVrzF5rfvGQjte4J4qCcrHLACQsXY6ObItXAhckJCSsL1u2bDKzlS7fZR2vAQq3359//rkpiJ6Zmbk3IyPjYgAsG6ImAiLw275LZjDPDcE4++yzs0Umi4KXLFnS95wOHDhgisWHxKR3lWvIr688Qcn9lM43CUvnQyQD45DAeAC9+vTpY/bTqAWfQO/evTFhwgQ6yv1S3DelJgIicDQBXiwe+uJJ8uxWokQJsycz51fp0qWd5bdv3z6zTzLn1+HDh3PbyxPeLA8R+nLWn9yGSVj6JlQyNE4IVExOTt6YnJxcitnKGjVqxInb8evmjh07TLZy7969qVlZWdxbuTl+achzESgQgTqeyGwMgItkECqrH/T+7bPEHMVk9vvvAhFxqJOEpUPBkCkiAGAQgOGdO3fGrFmzBCQOCIwYMQKDBw+mp7MBdIkDl+WiCISbAC8bL5/ry2WxSRHJo905vw6FG0qsxpOwjBV5zSsCxxI4LSUl5bPU1NQ/rF69Oi42qMf7h4DXsTFbuW2buYGtHoA18c5E/ouACPibgISlv+Mn64NFoAeAKbx1YuHChcHyTN4clwDr0j300EP83jMA2giTCIiACPidgISl3yMo+wNDwMtWXrBs2TLcdNNNgfFLjuRNgNnK9evXswNr9y0XKxEQARHwOwEJS79HUPYHhcAfuWG7SZMmWLJkSVB8kh/5EBg3bhz69jUHwF8C0EKwREAERCAIBCQsgxBF+RAEAqYg+tKlS3HrrbcGwR/5kA8B3qDhnfhP5eUiAL4VMBEQAREIAgEJyyBEUT4EgUAWnWCR3NNOc/kwYxBQx9aH1157LecvDyyXwtIiaiIgAiIQCAISloEIo5wIAAHe/XrtokWL0KpVqwC4IxdyE+DJb955/MILL4S+9QqAZiIlAiIgAkEiIGEZpGjKFz8TMLft0AHehXvWWWeZLzX/E9i8eTP46ptfR44cCTk0DMBQ/3snD0RABETgaAISlvpEiIA7BCgsKTDVAkggMTFxT2ZmJutUjla9ygAGWC6JgAgYAv8PTyiR6UZYc/sAAAAASUVORK5CYII=&quot;&gt;&lt;/span&gt;&lt;/span&gt;&lt;/b&gt;" style="text;whiteSpace=wrap;html=1;" vertex="1" parent="1">
                    <mxGeometry x="145" y="350" width="560" height="550" as="geometry"/>
                </mxCell>
            </root>
        </mxGraphModel>
    </diagram>
</mxfile>